<?xml version="1.0" encoding="utf-8"?>
<!-- Generator: Adobe Illustrator 19.0.0, SVG Export Plug-In . SVG Version: 6.00 Build 0)  -->
<svg version="1.1" xmlns="http://www.w3.org/2000/svg" xmlns:xlink="http://www.w3.org/1999/xlink" x="0px" y="0px"
	 viewBox="0 0 612 792" style="enable-background:new 0 0 612 792;" xml:space="preserve">
<style type="text/css">
	.st0{fill:#FFFFFF;}
	.st1{fill:#FFFFFF;stroke:#000000;stroke-miterlimit:10;}
</style>
<g id="Camada_1">
	<g>
		<g>
			<path class="st0" d="M8.9,712.2c0-198.6,0-397.1,0-595.7c198.6,0,397.1,0,595.7,0c0,198.6,0,397.1,0,595.7
				C406,712.2,207.4,712.2,8.9,712.2z M333.1,330.3L333.1,330.3c0.2-1.1,0.1-2.2-0.5-3.1c-0.2-0.3-0.8-0.3-0.9-0.6
				c-1-2.1-1-2.1-3.2-2.1c-0.2,0-0.5-0.1-0.6-0.2c-0.6-0.9-1.3-0.5-2.1-0.3c-1.2,0.3-2.5,0.5-3.8,0.8c-0.2-2.5-0.4-4.9-0.6-7.5
				c0.6-0.1,1.4-0.5,2.1-0.5c2.8,0.1,5.3-0.8,7.5-2.2c1.2-0.7,2.5-1.7,2.3-3.5c-1.1,0-1.9,1.5-3.1,0.4c0-0.7,1.5-1,0.4-1.9
				c-0.2-0.1,0.3-0.9,0.4-1.5c-0.4-0.1-0.8-0.2-1.2-0.3c0.7-2.3-0.9-1.5-2-1.4c0.2-0.5,0.3-0.8,0.5-1.5c-0.8,0.5-1.3,0.8-1.8,1.1
				c-0.4-1.1-1.1-1.2-2-1c-0.7,0.2-1.4,0.4-2.1,0.5c-3.8,0.3-7.4,1-10.9,2.7c-2.7,1.3-3.7,3.1-2.9,6c0.1,0.3,0,0.6,0,0.9
				c-0.1,1-0.5,2.1-0.2,2.9c0.8,1.9,0,3.8,0.3,5.5c0.4,2-1.9,3.7-0.5,5.6c0,0-0.1,0.3-0.2,0.3c-0.8,0.4-0.5,0.9-0.4,1.6
				c0.3,1.6,0.8,3.3,0.6,4.8c-0.4,2.7,0,5.4,0.3,8c0.2,1.5,1.4,2.9,2.3,4.3c0.2,0.3,0.8,0.5,1,0.4c0.9-0.5,1.3,0.3,1.9,0.5
				c0.9,0.3,1.9,0.7,2.8,0.6c1.2-0.2,2.7,0.1,3.5-1.4c1.1-2.1,1.5-4.2,1.2-6.5c-0.2-1.8,0.1-3.6,0.2-5.6c1.5-0.2,2.7-0.5,4-0.6
				c2.5-0.2,4.9-0.9,7.1-2.1c0.7-0.4,1.3-0.9,1.7-1.5c0.2-0.3,0.1-0.9,0-1.3C334,330.4,333.4,330.4,333.1,330.3z M513.7,496.4
				c-0.7-0.1-1.4-0.2-2.1-0.3c2-1.1,0.8-3,1.9-4.2c-0.9-0.1-1.5,0-1.9-0.3c-2.1-1.5-2.1-1.5-4-1.3c-1.8,0.2-3.6,0.4-5.4,0.7
				c-1.7,0.3-3.4,0.5-5,1c-4.3,1.3-8.7,2.6-13.1,3.4c-0.5,0.1-1,0.1-1.8,0.1c0.3-0.6,0.5-1,0.7-1.3c1.6-2.2,3.3-4.5,4.9-6.7
				c1.2-1.6,1.8-3.9,4.5-3.6c0.1,0,0.1-0.1,0.2-0.1c2.7-0.6,5.2-2,8-2.2c2-0.2,4.1-0.5,5.4-2.4c0.3,0.8,0.5,1.5,0.7,2.2
				c0.2,0,0.3-0.1,0.5-0.1c0.4-2,1-3.9,0.3-5.9c-0.2-0.6-1.1-0.9-1.7-1.4c0.2-0.3,0.4-0.7,0.7-1.2c-1.6-0.2-2.8-1.5-4.4-1.1
				c-1.5-1.9-2.9,1-4.6,0.1c1-1.2,2-2.3,2.9-3.5c0.9-1.1,1.8-2.2,2.7-3.3c0.3-0.4,0.2-3.8,0-3.7c-1.5,0-1.1-2.4-2.8-2
				c-1.1-1.8-3-1.6-4.7-1.5c-2.8,0.2-5.6,0.7-8.4,1c-4.9,0.5-9.8,1-14.6,1.5c-2.9,0.3-5.7,1.2-8.3,2.4c-1.6,0.8-1.5,1.6-1.1,3.3
				c0.8,3,4.3,2.7,5.7,4.9c0,0,0.4-0.2,0.6-0.2c3.9-0.5,7.9-1,11.8-1.5c1.2-0.2,2.5-0.3,4.2-0.4c-1.6,2.7-2.9,4.9-4.3,7.2
				c-4.2,0.3-8.3,1.1-12.2,2.8c-2.3,1-4.5,2.3-6.7,3.6c-1.1,0.6-2.1,1.8-1.6,3c0.8,2,1.5,4.1,4.1,4.9c2.1,0.7,4.2,0.9,6.7,0.4
				c-0.6,0.9-0.8,1.5-1.2,1.9c-1,1.1-2,2.2-3.1,3.3c-2.3,2.2-4.2,4.5-4.4,7.9c0.5,0.5,1.8-0.2,1.6,1.4c-0.1,0.5,1.4,1.6,2.2,1.6
				c1.4,0.1,2.4,0.5,3.1,1.4c0.5-0.3,0.9-0.8,1.2-0.8c3.7,0,7.4-0.7,11-1.3c1.1-0.2,2.3-0.5,3.4-0.7c4-0.7,8-1.2,11.9-2.6
				c2-0.7,4.1-1.4,6.2-1.5c3.8-0.1,7.2-1.5,10.8-2.8C513.9,497.6,513.8,497,513.7,496.4c0.3,0,0.7,0.2,1.1,0.3
				c0.1-0.1,0.1-0.2,0.2-0.3c-0.3-0.4-0.6-0.8-1.2-1.6C513.7,495.7,513.7,496.1,513.7,496.4z M387.5,427c0,2.3,0.1,4.2,0,6.2
				c-0.1,1.6,0,3.4-0.7,4.7c-1.3,2.4,0.1,4.1,1,5.8c0.7,1.3,2.1,1.8,3.6,1.5c0.8-0.2,1.6-0.6,2.4-0.8c1-0.3,2.1-0.7,3.2-0.9
				c0.8-0.1,1.4-0.2,1.7-1c0.6-1.2,0.7-2.6,1-3.8c0.6-2.2,0.4-4.5,0.5-6.8c0.1-1.2,0.2-2.5,0.2-3.6c2.3-1,4.6-0.9,6.7-0.9
				c3.3,0.1,6.3-1,9.4-1.7c-0.1-0.6-0.2-1-0.2-1.5c0-0.5,0.2-1,0.4-1.6c-1.7,0.3-1.7,0.3-3-0.5c0.3-0.8,0.6-1.6,0.8-2.5
				c0.1-0.5,0.1-1.2-0.2-1.6c-0.4-0.7-1-1.5-1.7-1.8c-1.2-0.5-2.5-0.7-3.8-0.7c-2.1-0.1-4.1,0.1-6.2,0c-0.8,0-1.7-0.3-2.2-0.4
				c0-2.4-0.2-4.6,0.1-6.7c0.3-2.6-0.5-5-0.4-7.6c0.1-2.7,0.6-5.7-1-8.3c-0.2-0.3,0-1.1,0.3-1.3c0.5-0.4,0.6-0.6,0.2-1.1
				c-0.2-0.3-0.4-0.7-0.4-1.1c-0.1-2,0-3.9-0.3-5.9c-0.2-1.3,0-3-1.8-3.6c-0.3-1.5-1.9-1.4-2.6-2.3c-1-1.3-2.3-1.1-3.5-1.4
				c-0.6-0.1-1.5-0.1-1.9-0.5c-1.1-1.4-2.7-1.4-4-1.1c-3.5,0.6-6.7,1.8-9.5,4c-2.1,1.7-4.3,3.2-6.2,5.2c-2.9,3-5.2,6.5-5.2,11
				c0,1.8-0.3,3.8,0.3,5.4c0.7,1.9,2.4,3.3,3.4,5.1c0.8,1.4,3,0.8,3.2,2.3c1.8,0.6,3.3,0.9,4.7,1.6c0.5,0.3,0.7,0.1,1.1,0
				c1.9-0.4,3.8-0.9,5.7-0.1c0.9-0.5,1.9-1,2.7-1.6c0.8-0.6,1.4-1.3,2.1-2c0.2,0.1,0.3,0.1,0.5,0.2c-0.4,3.4,0.7,6.8-0.6,10.3
				c-1.1-0.1-2.1,0-3.1-0.2c-1.1-0.2-2,0-2.9,0.4c-0.1,0-0.3-0.1-0.4-0.2c-2.2-1-4.5-0.2-6.7,0.1c-1.6,0.2-3,1.1-4.5,1.7
				c-0.7,0.3-1.3,0.2-1.7,1c-0.4,0.8-0.4,1.5-0.1,2.2c0.4,0.9,0.6,1.8,1,2.7c0.2,0.5,0.6,0.9,1,1.2c0.6,0.4,1.3,0.6,1.8,1.1
				c1.5,1.4,3.5,1.8,5.2,1.5C380.4,426.5,383.8,427.3,387.5,427z M260.3,555c-0.9,0.8-1.7,1.5-2.5,2.1c-1.1,0.8-2,1.9-1.5,3.2
				c1.1,2.8,2.5,5.3,5.1,7.2c1.1,0.8,2.2,0.3,3.2,1c1.8,1.1,3.7,2.1,5.6,3c0.7,0.4,1.6,0.4,2.4,0.7c0.3-1.2,1.4-0.7,1.7-0.4
				c1.1,0.7,2.2,0.5,3.4,0.4c0.7,0,1.5,0.3,2.3,0.4c1.3,0.1,2.6,0.1,3.9,0.1c0.4,0,0.9-0.3,1.1-0.2c1.4,0.9,2.8,0.4,4.2,0.4
				c2.7,0,5.4-0.1,8.1-0.3c2.8-0.2,5.5-0.4,8.2-1c4.1-0.9,8.1-2.2,12.1-3.3c0.5-0.1,1.1-0.3,1.6-0.4c3.6-0.3,7.1-0.6,10.6-1.4
				c2.8-0.7,5.5-1.6,6.5-4.9c-0.6,0-1.1,0.1-1.8,0.1c0.4-0.7,1-1.5,0.8-1.8c-0.8-1.1,0.1-1.8,0.6-2.5c-2.2-3.7-5-6.6-8.4-9
				c-1.2-0.8-2.4-1.5-3.7-2.2c-1.3-0.6-2.7-0.8-4-1.4c-1-0.4-2.3-0.1-3.5-0.3c-2-0.4-4-0.6-6-0.6c-1.6,0-3.1,0.1-4.7,0.1
				c-2.3,0-4.7-0.2-7,0c-3.8,0.3-7.7,0.7-11.5,1.2c-4.1,0.5-8.1,1.2-12.1,2.4c-2.4,0.7-4.9,1.1-7.4,1.7c-0.9,0.2-2.2,0.3-2.6,0.9
				c-0.9,1.4-2.7,0.4-3.4,1.8c-2-0.6-2.4,1-3.5,2.2C259,554.3,259.5,554.6,260.3,555z M140.2,398.7c-0.2-0.3-0.3-0.6-0.5-0.8
				c-0.3-0.3-0.9-0.7-1.1-0.6c-0.4,0.3-0.8,0.8-0.8,1.2c0,1,0.1,2.1,0.6,2.8c1.8,2.9,1.9,6.3,2.5,9.5c0.4,1.9,0.5,3.8,0.6,5.7
				c0.3,3.5,0.5,7.1,0.7,10.6c0.1,1.6,0.1,3.2,0.2,4.7c0.3,3.9,2.4,6.7,5.5,9.2c0-0.5,0-0.7-0.1-0.9c0.8,0,2.1-0.3,2.5,0.1
				c1.3,1.5,2.1,0.1,3.1-0.3c0.2,0.4,0.4,0.6,0.7,1.2c0.8-1,1.7-1.7,1.9-2.6c0.5-2.1,1.1-4.3,0.8-6.6c0-0.4-0.2-0.8-0.1-1.1
				c0.6-2.6,1.1-5.2,1.8-7.8c1-3.6,3.6-5.7,7.2-6.8c0.6,3.3,1.1,6.6,1.7,9.8c0.4,2,1.1,4,1.2,6c0.2,3,1.9,5.2,3.5,7.4
				c1.9,2.6,4.2,0.9,6.4,0.5c1.7-0.3,3.2-1.3,3.3-3c0.2-3.6,0.1-7.3,0.1-10.9c0-0.9-0.7-1.9-0.4-2.6c0.3-0.8-0.6-1.7,0.4-2.3
				c0.1,0,0-0.5,0-0.7c0-0.9-0.2-1.9-0.1-2.8c0.1-1.4,1-2.2,2.5-2.4c1.4-0.2,1.8,0,2.3,1.7c0.5,1.6,0.9,3.3,1.1,5
				c0.3,1.6,0.5,3.3,0.8,4.8c0.4,1.8,0.8,3.4,0.7,5.2c0,0.6,0,1.4,0.4,1.9c1.2,1.8,2.5,3.6,3.8,5.4c1.3-0.4,2.3-0.5,3.2-0.4
				c0.9,0.1,1.8,0.3,2.3-0.8c0.2-0.3,0.7-0.5,0.8-0.6c0.3,0.4,0.6,0.9,0.8,1.2c0.9,0.2-0.1-0.9,1.1-0.9c1.1,0,1.2-1.1,0.2-1.9
				c-0.7-0.5-0.6-1.5-0.4-1.6c1.4-0.1,0.8-1.1,0.7-1.7c-0.3-1.6-0.8-3.1-0.9-4.7c-0.2-2.8-0.7-5.5-1.5-8.2c-0.1-0.3,0.1-0.8,0.1-1.1
				c0-0.4,0.2-0.9,0-1.3c-0.4-1.3-0.8-2.5-1.3-3.7c-2.1-4.8-5.4-8.4-10.1-10.6c-0.4-0.2-0.9-0.2-1.4-0.2c-3.6,0.3-7.2,0.7-10.5,2.6
				c-1.1,0.6-2.8,1.6-3.9-0.4c-1.5-0.3-2.7-1.2-4.3-1.4c-1.5-0.2-2.9,0.1-4.2,0.3c-2.2,0.4-4.2,1.2-6.1,2.5c-1.7,1.2-3.5,2.5-5.8,2
				c0.1-0.6,0.3-1.1,0.3-1.6c-0.5-3.5-1.6-6.8-3.6-9.7c-1-1.6-2.7-2-4.6-2.1c0.1,0.6,0.1,1,0.1,1.3c-1.6,0.4-0.8-0.9-1.2-1.2
				C142.3,396.5,141.4,397.5,140.2,398.7z M372.9,317.3c-1-0.8-1.8-2-2.9-2.4c-1.8-0.7-3.8-0.9-5.7-1.2c-0.8-0.1-1.7,0-2.6,0.1
				c-2.3,0.1-4.7,0-6.9,0.5c-3.4,0.8-6.6,2.1-9.6,4c-5,3.2-7.6,8-8.3,13.8c-0.1,0.9-0.1,2,0.2,2.8c0.6,1.5,1.5,2.8,2.5,4.2
				c0.5,0.7,1.2,1.4,1.9,1.7c2.2,0.9,4.4,1.7,6.6,2.3c2.3,0.7,4.6-0.1,6.9,0c2,0,3.8-0.6,5.5-1.5c1.1-0.6,2.3-0.8,3.6-0.7
				c0,2.1,0,4,0,5.9c0,0.7-0.1,1.5-0.5,2c-0.6,1-1.3,2-2.2,2.8c-3,2.4-6,4.7-9.1,7c-2.6,1.9-5.5,2.4-8.6,1.6
				c-0.6-0.2-1.3-0.3-1.9-0.1c-2,0.8-4,1.7-6.1,2.4c-1.1,0.4-1.2,1.3-0.5,2.3c1.7,2.3,2.9,4.8,5.9,6.1c1.4,0.6,2.5,1.3,4.1,1.1
				c1.2-0.1,2.4-0.1,3.5-0.3c2.2-0.3,4.4-0.5,6.4-1.1c1.8-0.6,3.4-1.7,5.1-2.6c4.9-2.8,9.3-6.3,12.9-10.7c1.3-1.6,2.5-3.3,2.9-5.4
				c0.1-0.5,0.4-1,0.6-1.4c-0.9,0-1-0.7-0.6-1.1c0.9-1,0.4-2.1,0.2-3.1c-0.3-1,1.2-2.1-0.2-3c1.2-1,0.3-2,0-3
				c-0.2-0.7,0.1-1.7,0.2-2.5c0.1-0.6,0.1-1.3,0.2-1.9c0.2-0.8-1.3-1.2-0.4-2c0.9-0.9-0.3-1.3-0.4-2c-0.1-0.8,0.7-1.8-0.6-2.3
				c0-0.1,0.1-0.2,0.1-0.2c1.3-0.2,0.5-1.1,0.5-1.7c-0.1-1.5-0.2-3.1-0.7-4.5c-0.6-1.8-0.7-4-2.8-5
				C372.6,317.7,372.8,317.5,372.9,317.3z M337.4,437.7c0-0.9-1.5-1.1-0.5-2.1c0.1-0.1,0.1-0.8-0.1-0.9c-0.8-0.5-0.5-1-0.1-1.6
				c0.2-0.2,0.4-0.5,0.4-0.8c-0.2-2.5-0.4-5-0.7-7.4c-0.1-0.9-0.3-1.9-0.4-2.8c0-0.4,1.5-0.8,0-1.1c0.2-0.6,0.5-1.3,0.5-1.9
				c-0.1-3.7-0.2-7.3-0.5-11c-0.2-2.5,0.5-3.7,2.7-4.1c3.7-0.8,7.5-1.4,11.1-2.4c3.5-0.9,6.7-2.3,8.7-5.7c0.6-1,0.3-2,0.7-2.8
				c0.3-0.7,1-1.1,0.2-2c-0.6-0.6,1-1.5-0.1-2.3c-0.2-0.2,0.1-1,0.2-1.5c0.1-0.4,0.2-0.8,0.1-1.2c-0.3-0.9-0.1-2.4-1.8-2.3
				c-0.1,0-0.2-0.3-0.2-0.3c1.1-1.5-0.6-2-1.2-2.8c-0.5-0.8-1.4-1.3-2-2c-2.8-2.9-6.3-4.6-10.1-5.9c-0.5-0.2-1.1-0.4-1.6-0.4
				c-2.5,0-5.1,0.1-7.6,0.2c-1.1,0-2.3,0.1-3.4,0.3c-1,0.2-2,0.9-3,1.3c-1.5,0.5-2.6,1.5-3.3,2.8c-1.5,2.9-2.5,6-2,9.4
				c0,0.3,0.3,0.7,0.2,0.9c-1.4,3.3-0.3,6.7-0.6,10.1c-0.3,2.4,0,5,0.4,7.4c0.4,2.5,0,4.9,0.9,7.5c0.7,1.9,0.1,4.2,0.1,6.3
				c0,2.4-0.1,4.9,0,7.3c0.1,3.5,0.5,7,0.5,10.5c0,1.1,0.7,2.4,0.3,3.1c-0.6,1.5,1.6,1.3,1.2,2.7c-0.2,0.7,3.2,1.9,4,1.6
				c1.1-0.4,2.2-0.7,3.4-1.1c0-0.3,0.1-0.9,0.3-1.9c0.7,1.1,0,2.5,1.4,2.6c0.8-1.4,2.2-2.8,0.4-4.4
				C336.4,438.4,336.9,438,337.4,437.7z M275.3,444.3c0.5,1.1,1,1.6,2.3,1.4c1.8-0.3,3.7-0.2,5.6-0.3c0.6,0,1.3,0.3,1.8,0.1
				c3.6-1.6,7.6-2.3,10.3-5.7c2.7-3.4,4.9-6.8,5.2-11.2c0.1-1.2,0.7-2.1,1.7-2.5c0.6-0.3,1.2-0.3,1.8-0.5c2.5-1,5.1-2,6.2-4.7
				c0-0.1-0.1-0.3-0.1-0.5c-0.6-0.1-1.3-0.2-2.2-0.3c0.4-1.2,0.8-2.2,1.2-3.2c-0.5-0.7-1.1-1.6-1.7-2.4c-1.6,0.5-3.1,0.5-4.1-0.6
				c-1.5,0.4-2.9,0.8-4.1,1.2c-1.3-1.4-2.3-2.9-3.7-3.9c-2.5-2.1-5.2-3.9-7.8-5.9c-1.4,0.2-1.7-1.5-3.1-1.8
				c-4.4-0.8-8.4-0.2-12.2,2.3c-0.4,0.3-0.8,0.6-1.2,0.8c-4.1,2.1-7,5.4-8.7,9.7c-1.6,4.2-1.8,8.6-1.6,13.1c0.1,2.3,0.4,4.5,1.9,6.5
				c0.8,1,1.5,2.1,2.2,3.1c1.4,1.9,3,3.6,5.1,4.5C271.5,444.1,273.2,445.1,275.3,444.3z M256.6,455.1c-1.1,1.1-1.3,2.4-1.2,3.8
				c0.2,2,0.4,3.9,0.6,5.9c0.2,2.1,0.4,4.1,0.7,6.2c0.2,1.6,0.8,3.2,0.9,4.8c0.4,3.8,1.1,7.5,2.8,10.9c2.2,4.2,4.9,8.1,10,9.6
				c3.8,1.2,7.3,0.6,10.2-1.9c1.8-1.6,3.3-3.7,4.9-5.5c0.3-0.4,0.6-0.9,1-1.7c0.9,1.2,1.5,1.8,1.9,2.5c2.8,4.1,6.7,6.1,11.6,6.3
				c4,0.1,5-0.5,6.6-4.4c0.5-1.2,1-2.3,1.4-3.5c1-2.8,2.2-5.6,2.9-8.5c0.8-3.1,1.1-6.2,1.6-9.4c0.1-0.6-0.4-1.4-0.2-1.8
				c1-1.5,0.8-3.3,0.9-4.9c0.1-2.1-0.2-4.4,0.7-6.2c0.8-1.5-1.5-2.1-0.5-3.3c-0.6-0.4-1.2-0.8-1.7-1.2c-0.1-0.1-0.1-0.2-0.2-0.2
				c0.1-0.3,0.2-0.5,0.3-0.7c-0.9-0.4-1.7-0.8-2.6-1.3c-1,0.4-1,2.4-2.5,1.9c-1.1-0.3-2.2,0.8-3.3-0.8c-0.4,1.2-0.7,1.9-0.9,2.6
				c-0.9,2.7-0.8,5.6-0.9,8.4c-0.1,2.5-0.1,5-0.6,7.4c-0.9,4.2-2.2,8.3-3.3,12.5c-0.1,0.5-0.4,0.9-0.7,1.6c-0.3-0.5-0.5-0.8-0.7-1
				c-1.3-2.7-2.9-5.3-5-7.5c-0.4-0.4-0.8-0.8-1.3-1.1c-0.8-0.5-1.8-0.9-2.8-1.4c-1.1,1.1-3.4-0.2-4.6,1.6c0,0.1-0.4,0.1-0.4,0
				c-1.1-1.2-1.7-0.2-2.2,0.6c-0.6,1.1-1.1,2.3-1.7,3.4c-1.5,2.8-3.2,5.5-5.8,7.8c-0.6-1-1.3-1.7-1.5-2.6c-0.9-3.4-1.9-6.7-2.5-10.2
				c-0.5-2.8-0.5-5.7-0.8-8.5c-0.1-0.8-0.4-1.5-0.5-2.3c-0.2-1.6-0.1-3.3-0.4-4.8c-0.2-0.8-1-1.5-1.6-2.1c-0.7-0.6-1.6-1.1-2.6-1.8
				C260.8,454.4,259,456.3,256.6,455.1z M473,440.8c1.2,0.3,1.9,0.4,2.7,0.6c1.1,0.3,1.9,1.3,3.1,1.7c1.8,0.6,3.5,0.1,5.3,0.3
				c1.1,0.1,2.2,0.4,3.4,0.4c2.3-0.1,4.7-0.1,7-0.5c2.4-0.5,5.2,0.1,7.3-1.8c0.2-0.2,0.5-0.1,0.8-0.2c0.7-0.2,1.5-0.6,2.2-0.6
				c0.7,0,0.5-1.4,1.6-0.8c0.4,0.2,1.3-0.6,2-1c0.5-0.3,0.9-0.8,1.4-1c1.5-0.7,2-2,2.1-3.5c0.1-0.8,0-1.6,0-2.4
				c0.3,0,0.6,0.1,0.9,0.1c-0.1-0.8-0.1-1.5-0.2-2.2c0-0.6-0.1-1.2-0.1-1.9c0-0.7,0.1-1.4-0.1-2.1c0-0.2-1,0-0.9-0.7
				c0.1-0.7,0.1-1.4,0.2-2.1c-0.5-0.2-1-0.3-1.5-0.5c0.3-0.4,0.6-0.8,0.9-1.2c-0.8-1-1.5-1.9-2.3-2.8c-1.8-2.2-4.3-3.5-6.8-4.5
				c-2.6-1-5.2-2.2-8.3-1.4c-1.5,0.4-3.1,0-4.8-0.6c0.3-0.6,0.4-1.2,0.8-1.5c2-1.9,4.1-3.7,6.2-5.5c0.4-0.3,1.1-0.5,1.6-0.4
				c1.4,0.2,2.7,0.9,4.1,1c1.6,0.1,3.3,0,5-0.2c0.5,0,0.9-0.5,1.6-0.9c-1.4-0.1-0.9-1.3-1.7-1.9c-0.8-0.5-0.2-2.2,1-2.9
				c-0.4-1-0.5-2.2-1.1-2.7c-1.7-1.3-3.6-3-5.6-3.5c-4.3-1.1-8.8-0.7-12.5,2c-2.8,2-5.5,4.3-8.1,6.7c-1.4,1.3-2.8,2.8-3.3,4.8
				c-0.8,2.7-1.2,5.3,0.1,8.1c1,2.2,2.4,3.9,4.4,5.4c2.7,2.1,6.4,1.7,9.2,3.4c0.1,0.1,0.6-0.4,0.8-0.3c2,0.9,4.3-0.8,6.2,0.8
				c1-0.4,1.2,0.4,1.6,0.9c0.5,0.8,0.9,1.6,1.3,2.4c-0.2,0.8-0.4,1.5-0.6,2.2c-2.7,1.3-5.4,1.7-8.2,2.1c-4.9,0.8-10-1.2-14.8,0.6
				c-1.5-0.7-1.3,0.9-1.9,1.4c-0.2-0.4-0.4-0.7-0.6-1.3c-1.1,0.9-2.3,1.7-3.3,2.7c-0.2,0.2-0.2,0.9,0,1.3
				C471.5,438.3,472.4,439.8,473,440.8z M496.2,287.1c-0.4,0.5-0.7,0.7-0.8,0.9c-0.3,1.8-1,3.5-0.2,5.4c0.4,0.9,0.6,2,0.7,3
				c0.2,2,0.4,3.9,0.5,5.9c0.2,2.4,0.4,4.7,0.4,7.1c0,2.9-0.1,5.8-0.1,8.7c0,1.4,0.3,2.8,0.2,4.2c0,3.6-0.2,7.1-0.2,10.7
				c0,0.5,0,1.2,0.2,1.6c0.8,1.5,1.7,2.8,2.7,4.4c0.5-0.3,1-1.1,1.7-0.1c0.2,0.3,1.2,0.5,2,0.6c1.3,0.1,2.8-0.7,4,0.4
				c1.8-1.5,1.2-3.8,2.3-5.6c0.5-0.9,0.3-2.5-0.2-3.6c-0.9-2.1,0.2-3.9,0-6.2c0.6,0.4,1,0.6,1.2,0.9c2.6,3.4,6.1,5.6,9.8,7.3
				c0.9,0.4,1.9,0.6,2.6,1.2c0.7,0.6,1.4-0.1,2.1,0.6c0.6,0.6,2.4,0.6,3.1,0.1c1.2-0.9,2.4-0.9,3.7-1.5c-0.6-0.2-1.3-0.5-2-0.7
				c0.4-0.3,0.7-0.6,1-0.8c-0.4-0.3-0.6-0.5-1.1-0.8c0.8-0.7,1.6-1.4,2.5-2.2c-0.4-0.3-1.2-1-1.2-1.1c0.5-0.7-0.1-0.8-0.5-1.2
				c-1.4-1.5-3.1-2.4-4.9-3.2c-1.8-0.8-3.6-1.8-5-3.2c-2.6-2.4-4.9-5.2-7.4-7.8c-1.7-1.8-1.9-1.9-0.3-4c2.5-3.2,5.1-6.3,7.6-9.5
				c0.7-0.9,1.4-1.7,1.8-2.7c0.4-0.9,1-2.1-0.4-2.9c0.9-1.3-0.1-1.7-0.9-2.4c-0.4-0.3-0.6-1-0.9-1.6c-0.3,0.3-0.6,0.6-0.9,1
				c-1.2-1.2-2.3-1.4-3.3,0.2c-0.2-0.4-0.4-0.7-0.7-1.1c-1.3,2-2,0-2.9-0.6c-1,1.2-1.8,2.3-2.6,3.3c-0.9,1-1.6,2.1-3,2.5
				c-0.2-0.5-0.4-1-0.6-1.4c0.5-0.3,1.7-0.3,0.7-1.3c-0.2-0.2-0.6-0.4-0.6-0.6c0.2-1.9-1.2-1.7-2.4-1.9c0.2-0.5,0.4-0.9,0.6-1.4
				c-1.3,0-2.9-0.5-3.6,0.1c-1.2,1-2.8-0.7-3.5,1.5C497.1,288.2,496.7,287.7,496.2,287.1z M369.9,476.8c3.2-3.6,6.2-7.5,8.5-11.9
				c0.6-1.2,1.4-2.6,1.4-3.9c0-1.2-1-2.5-1.5-3.7c-0.9-1.8-4.2-2.2-5.8-1c-0.5,0.4-1,0.8-1.4,1.2c-0.7-0.2-1.2-0.4-1.8-0.6
				c-2.3,5.6-5.6,10.3-9.9,14.6c-4.4-2.7-8.6-5.3-12.9-7.9c-2.4-1.4-4.9-2.7-7.4-3.9c-1.3-0.7-2.6-0.6-3.6,0.7
				c-0.2,0.2-0.6,0.5-0.7,0.4c-1.3-0.9-1.3,0.6-1.9,1c-1.9-0.9-2-0.9-2.4,2.2c1,1.2,2,2.6,3.3,3.6c1.7,1.3,3.5,2.5,5.6,3.2
				c0.4,0.1,0.9,0.4,1.3,0.7c2.9,1.7,5.9,3.5,8.8,5.2c1.1,0.7,2.2,1.5,3.3,2.3c-0.7,0.9-1.1,1.6-1.6,2.1c-3.9,3.8-7.4,8.1-11.7,11.6
				c-1.3,1-1.9,2.3-2.2,3.7c0.8,0.8,1.4,1.7,2.2,2.4c0.6,0.5,1.2,1.1,1.9,1.2c1.3,0.3,2.7,0.5,3.9,0.3c1.4-0.2,2.8-0.8,4.3-1.3
				c1.4-2.6,3.7-4.2,5.7-6.3c2.7-2.7,5.3-5.5,8-8.3c1.4,0.9,2.9,1.7,4.3,2.6c2.4,1.5,4.9,3,7.3,4.5c1.2,0.7,2.8,1,3.7,2
				c1,1.1,2.7,1.2,3.5,2.5c0.1,0.2,0.6,0.3,0.9,0.3c1.8-0.3,3.7-0.5,5-2.1c0.6,0.6,1.1,1.1,1.8,1.8c0.4-0.8,0.8-1.4,1.1-2
				c0.1-1.5-3-2.1-0.8-4.3c-1.4-1.2-2.7-2.5-4.3-3.4c-1.7-1.1-3.6-1.7-5.2-2.8C376.9,481.4,373.5,479.1,369.9,476.8z M469.7,307.5
				c-1.9,1.4-1.8,3.5-1.8,5.3c0,3.7,0.4,7.4,0.6,11.2c0.1,2.6,0.2,5.2,0.3,7.8c0.1,2.4,0.3,4.9,0.4,7.3c0,2.5,0.2,4.9-0.1,7.4
				c-0.3,2.2-0.3,4.3,0.2,6.5c0.1,0.3,0.2,0.6,0.1,0.9c-0.9,2.9-0.6,6-0.6,9c0.1,4.3-0.7,8.4-2.3,12.3c-0.2,0.5-0.7,1-1.1,1.1
				c-2.2,0.4-4.4,0.8-6.5-0.1c-1.6-0.7-1.6-0.6-3.3,0.2c-1.1,0.5-2.6,1.4-3.5,1.1c-1-0.3-1.4-0.5-2,0.4c-0.6,0.9-1.1,1.8-0.1,2.9
				c1.2,1.4,2.1,2.9,3.3,4.4c1.2,1.5,3.6,0.9,4.9,2.6c0.2,0.3,1.5-0.3,2.2-0.2c2.3,0.4,4.7,0.5,6.9,0.1c4.2-0.8,8.3-1.8,10.4-6.2
				c0.5-1,0.7-2.2,1.2-3.3c1.8-3.9,2-8.1,1.9-12.2c0-2.3,0.2-4.6,0.1-6.9c-0.1-1.3,0.2-2.6,0.2-3.8c0-1.6,0.2-3.2,0-4.8
				c-0.6-3.5-0.3-4,0.7-6.9c0.3-0.7,0.3-1.5,0.3-2.3c0.1-0.9,0.4-2,0-2.5c-0.9-1-0.1-1.7,0-2.5c0.1-0.6-0.2-0.7-0.6-0.5
				c-0.1-0.4-0.2-0.9-0.1-1.2c0.1-0.4,0.5-0.7,0.5-0.7c-0.2-3.1-0.5-5.8-0.6-8.5c0-0.1,0.2-0.3,0.2-0.4c0.3-1.9,0.1-3.7-0.5-5.5
				c-0.3-1-0.8-2.3-0.5-3.2c0.4-1.1,0.2-2,0.1-3c-0.1-0.7,0-1.5,0-2.4c-0.9-0.3-1.8-0.6-2.9-0.9c0.4-0.3,0.8-0.5,1.5-1
				c-1-0.1-2.2-0.2-2.3-0.4c-0.3-1.9-2.1-1.4-3-2c-0.5,0.5-0.9,1-1.4,1.3c-0.6,0.3-1.2,0.4-1.8,0.7
				C470.3,308.2,470,307.9,469.7,307.5z M209.9,405.3c-1.2,1.8-1.5,3.5-1,5.3c0.4,1.3,1.3,2.6,1.4,4c0.1,3,1.4,5.9,1.2,9
				c-0.2,3.2,0.5,6.4,0.3,9.5c-0.2,2.9,0.8,5.1,2.2,7.5c0.9,1.5,2.2,2.1,3.5,2.5c1.4,0.4,3.1,0.1,4.7,0.1c0.1-1.8,1.3-0.1,2-0.6
				c0.9-2,1.7-4,2.3-6.1c1.1-3.8,2-7.7,3-11.5c0.3-1.1,0.6-2.4,1.3-3.3c0.7-0.9,1.8-1.4,2.8-2.1c1-0.8,1.5,0.5,2.3,0.6
				c0.3,0,0.6,0.2,0.6,0.2c0.6,2,1.1,3.7,1.7,5.4c0.3,0.9-0.1,2.2,1.2,2.7c0.1,0.1,0.3,0.5,0.2,0.6c-0.7,1.2,0.3,2,0.6,2.9
				c0.7,1.8,1.6,3.5,2.5,5.2c1.9,3.4,4,6.7,8.7,6.3c0.3,0,0.6,0.3,0.9,0.2c0.5-0.1,0.9-0.5,1.4-0.4c0.8,0.1,1.4-1.2,2.3-0.4
				c0.1,0.1,0.9-0.4,0.9-0.6c0-1,0.2-2.2-0.3-3c-0.3-0.5-0.4-0.7-0.1-1c0.3-0.4,0.7-0.7,1.1-1c-0.6-2-1.7-3.6-3.6-4.5
				c-0.5-0.3-0.9-1.1-1.1-1.8c-0.9-2.7-1.8-5.4-2.7-8.1c-1.2-3.7-2.6-7.2-5.1-10.3c-2.7-3.4-6.3-4.7-10.5-4.4
				c-2.1,0.1-4.2,0.5-6.2,1.4c-2.1,0.9-4.2,1.7-6.3,2.5c-2.2-5.3-2.2-5.3-3.9-5.9c0.1-0.3,0.2-0.6,0.3-0.9c-2.7-0.1-5.3,0.1-7.6,2
				C210.6,406.5,210.3,406,209.9,405.3z M111.6,458.5c-0.9,0.1-1.7,0.2-2.4,0.2c-2,0-4,0-5.9,0c-1.4,0-2.7,0.2-3.8,1.3
				c-0.2,0.2-0.8,0.1-1.2,0c-0.8-0.1-3.4,0.8-3.5,1.4c-0.2,1.2-1.9,2.5-0.1,3.9c0.3,0.2,0.4,0.9,0.5,1.3c0.9,2.5,2.8,4.1,5.5,4.2
				c2.5,0.1,5-0.2,7.4-0.3c1.9-0.1,2.1,0.2,1.9,2c-0.2,1.9-0.3,3.8-0.4,5.6c-0.1,3.1-0.2,6.2-0.2,9.3c0,2.4-0.1,4.9,0.1,7.3
				c0.3,2.5-0.1,4.7-0.7,6.9c0.4,0.7,0.6,1.5,1.1,2c1,1.1,1.3,2.8,3,3.2c0.8,0.2,1.6,0.4,2.5,0.4c1,0,2.2,0.3,2.8-1
				c0.1-0.3,0.6-0.4,0.9-0.6c0.1,0.2,0.2,0.5,0.3,0.7c0.1,0.2,0.3,0.3,0.5,0.4c1.8-2,1.8-2,0.9-4.3c0.4-0.4,0.9-0.8,1.4-1.3
				c-0.3-0.4-0.6-0.8-0.9-1.1c0.3-0.3,0.8-0.8,0.8-0.8c-0.8-1,0.5-2.1-0.4-3.1c-0.2-0.2-0.2-0.7-0.2-0.8c1.2-0.5-0.3-1.2,0.1-1.8
				c0.4-0.7,0.5-1.5,0.5-2.3c0-1-0.7-2.1,0.3-3.1c-0.8-0.7-0.6-1.3-0.3-2.3c0.3-1.1-0.1-2.5-0.2-3.6c-0.2-1.4,0.4-2.4,0.3-3.7
				c-0.1-2,0.2-4.1,0.5-6.1c0.1-0.7,0.4-1.4,0.7-2.1c0.1-0.2,0.3-0.4,0.4-0.6c0.5,2.9,1.9,0.6,3.1,1.3c0.9,0.6,2.6-0.4,3.8-0.2
				c1.5,0.2,2.4-0.5,3.2-1.4c0.3,0.3,0.5,0.6,0.8,0.9c1.4-1,1.2-2.2,0.6-3.4c-0.8-0.2-1.5-0.3-2.7-0.6c2-1.2,0.3-3.4,1.9-4.4
				c-1.7-1.2-3.4-2.7-5.7-2.6c-0.8,0-1.6-0.3-2.4-0.2c-1,0.1-1.7-0.2-2-0.7c0.2-0.5,0.4-0.9,0.3-1.1c-0.3-0.7-0.5-1.3-0.1-2
				c0.4-0.7,1-1.4,0-2.1c1-0.9,0.2-1.5-0.2-2.2c-0.2-0.3-0.2-0.7-0.3-1.1c-0.1-0.2-0.2-0.4-0.3-0.7c-1.1,0.5-1.1-0.4-1.4-1
				c-0.3-0.8-0.7-1.6-0.9-2.2c-0.6-0.1-1-0.3-1.4-0.3c-0.5,0-1.1,0.1-1.5,0.3c-1.3,0.9-2.9,0.9-4.3-0.3c-0.8,1.7-1.6,3.3-1.8,5.2
				C112.4,453.5,111.9,455.9,111.6,458.5z M419.9,524.7c1.2-3.4,1.9-6.5,3.6-9.2c2.1-3.2,3.6-6.8,4.8-10.5c1.7-5.2,3.4-10.4,5-15.6
				c0.7-2.3,2.9-4.2,2.1-7c0-0.1,0.1-0.1,0.1-0.2c1.2-2.9,2.1-5.8,2.9-8.8c0.9-3.3,2.5-6.5,3.7-9.7c0.2-0.6,0.3-1.2,0.4-1.8
				c-0.9-0.5-1.7-1-2.6-1.5c0.4-0.2,0.7-0.3,1.1-0.5c-0.2-0.3-0.5-0.4-0.5-0.7c-0.3-1.4-1.3-2.2-2.5-2.4c-1.2-0.2-2.5-0.5-3.6,0.5
				c-0.2,0.2-0.6,0.3-0.9,0.2c-1.3-0.4-1.7,0.5-2.1,1.4c-0.7,1.7-1.5,3.4-2.1,5.1c-0.8,2.2-1.6,4.5-2.4,6.8
				c-0.3-0.2-0.6-0.2-0.8-0.4c-2.6-2.9-5.1-5.7-7.6-8.6c-1.6-1.8-3.8-2.4-5.9-1.5c-1.4,0.5-2.6,1.7-4.2,1.3c-0.2,0-0.6,0.2-0.8,0.4
				c-0.7,0.8-0.4,3.6,0.4,4.4c1.5,1.5,3.2,2.8,4.7,4.4c3,3.3,5.8,6.7,8.9,9.9c1.5,1.5,1.5,2.9,0.8,4.7c-1,2.6-1.9,5.2-2.8,7.9
				c-0.7,2-1,4.2-1.7,6.2c-1.4,4.1-2.6,8.2-5.2,11.8c-1.4,2-2.2,4.2-2.8,6.6c-0.3,1.3-0.3,2.5,0.9,3.5c0.6,0.5,0.9,1.4,1.3,2.1
				c1.5,0.2,2.9,0.4,4.4,0.6c0-0.2,0.1-0.6,0.1-0.7c1-0.2,1.8-0.3,2.8-0.4C419.3,523.2,419.5,523.8,419.9,524.7z M428.8,333.2
				c-0.4-1.4-0.6-2.8-1.1-4.1c-0.8-2.1-1.7-4.2-2.7-6.2c-0.8-1.7-1.6-3.6-2.8-5.1c-1.6-1.9-3.6-3.5-6.1-4.1
				c-2.7-0.6-5.4-0.2-7.9,0.8c-1.2,0.5-2.4,1-3.8,1.6c-0.2-0.6-0.5-1.1-0.4-1.5c0.1-1.5,0.4-3,0.6-4.5c0.2-1.3,0.4-2.6,0.2-4
				c-0.2-1.1,0.6-2.5-0.3-3.7c0-0.1,0.2-0.3,0.2-0.5c0.2-0.5,0.7-1,0.6-1.5c-0.1-0.5-0.6-1-1-1.4c0.3-0.6,0.7-1.1,0.9-1.7
				c0.2-0.6,0.5-1.3,0.4-1.8c-0.1-0.6-0.7-1.1-1-1.7c-0.3-0.5,0.9-0.9,0.2-1.6c-0.5-0.6-0.6-1.5-0.9-2.5c-0.5,0-1.2,0-1.9,0
				c-0.1-0.3-0.2-0.6-0.3-1.1c-0.4,0.1-0.9,0.5-1,0.3c-1.5-1.2-2.5,0.3-3.6,0.8c-1,0.4-1.9,0.5-3.1-0.4c-0.3,0.8-0.6,1.6-0.9,2.3
				c-0.8,1.9-0.2,3.9-0.3,5.8c-0.2,4.3-0.7,8.5-1,12.8c-0.4,6.7-1.6,13.3,0.1,20c0.1,0.4-0.1,0.9-0.2,1.4c-0.2,1.3,1.9,5.9,3,6.4
				c0.1,0,0.2,0.1,0.2,0.1c1.7-0.6,3.1,1.1,4.7,0.5c1-0.5,2.2-0.2,3.5-0.1c0.6-1.4,1.2-2.8,1.8-4.2c1.5-3.7,4-6.6,7.5-8.6
				c1.7,1,1.6,1,2.3,3c0.3,1,1.2,2,1.3,3c0.2,2.6,1.7,4.5,2.9,6.9c0.5-0.7,0.8-1.1,1.2-1.6c0.4,0.5,0.8,0.4,1.4,0.5
				c1.3,0.2,2.5,0.6,3.7,0.9c0.1-0.3,0.2-0.6,0.2-0.8c0.8,0.3,1.5,0.5,2.1,0.7c0.3-1,0.6-1.7,0.6-2.5c0-0.7-0.3-1.5-0.5-2.2
				C428.1,333.4,428.5,333.3,428.8,333.2z M288.1,342.4c-0.3-0.5-0.7-1.1-0.7-1.6c0-1.3-1.3,0-1.5-0.9c-0.2-1-0.7-1.2-1.8-0.9
				c-0.7,0.2-1.5-0.6-2.2-0.4c-3,0.8-6,0.6-9,0.7c-2,0-4.2-0.1-6.1-1.1c-0.6-0.3-1.1-0.7-0.5-1.5c0.5,0.1,1,0.2,1.5,0.2
				c1.7-0.1,3.5-0.4,5.2-0.5c1.5-0.1,3-0.2,4.2-1.3c0.5-0.5,1.1-1,1.8-1.1c2.4-0.2,3.1-1.8,3.6-3.7c0.4-1.6,0.8-3.2,0.6-4.8
				c-0.1-0.8,0.2-1.6,0.4-2.6c-0.3-0.3-0.8-0.8-1.5-1.3c0.5-0.1,0.9-0.2,1.6-0.4c-0.5-0.6-1.4-0.9-1.1-1.9c0.1-0.4-0.5-1.1-0.8-1.6
				c-0.7-1.4-2-2.2-3.3-3c-1.4-0.9-3.1-1.1-4.6-1.6c-2.4-0.8-4.5-0.3-6.8,0.1c-4.7,0.9-8.4,3.6-11.8,6.9c-2.7,2.6-4.1,5.8-4.4,9.5
				c-0.1,1.3-0.1,2.5,0,3.8c0.2,1.8,0.1,3.8,1,5.3c1.6,2.8,3.3,5.7,6.2,7.6c1.4,0.9,3.4,0.8,4.3,2.5c0,0,0.3-0.1,0.4-0.1
				c0.9,0.1,1.8,0.2,2.6,0.5c1.4,0.4,2.7,1.3,4,1.3c2.7,0.2,5.5,1.1,8.3-0.1c0.5-0.2,1.2-0.3,1.8-0.2c3,0.4,5.5-1.2,8.1-2.3
				c0.8-0.3,0.8-1.1,0.1-1.6c-0.4-0.3-0.9-0.3-1.3-0.5c-0.1,0-0.1-0.2-0.3-0.4c0.4-0.2,0.7-0.5,1.1-0.7c-0.4-0.3-0.7-0.6-1.1-1
				C286.9,343.2,287.5,342.8,288.1,342.4z M246.1,343.6c0.2-0.1,0.4-0.1,0.6-0.2c0.2-2.3,0.5-4.7,0.5-7c0-2.6-0.4-5.3-0.4-8
				c0-3.1-0.2-6.2,0-9.3c0.2-3.5-0.2-7,0.1-10.6c0-0.2,0.1-0.5,0-0.7c-0.7-3.5-2.9-4.4-5.6-3.3c-1.5,0.6-2.7,0.7-3.8-0.6
				c-1.1,0.9-1.6,2-1.6,3.2c-0.1,2,0,4,0,6c0,2.3-0.1,4.6-0.1,7c-1.2,0-2.1,0-2.9,0c-1.5,0.1-3.1,0-4.5,0.4
				c-3.4,0.9-6.5,2.4-9.3,4.6c-1.8,1.4-3.2,3.1-4.2,5.1c-2,3.8-1.9,7.8-1.6,11.8c0.2,3,1.8,5.4,4.2,6.8c1.8,1.1,4.1,1.9,6.2,2
				c3.5,0.1,7-0.1,10.3-1.2c1.9-0.6,3.8-1.2,5.5-2.2c2.1-1.3,4-2.9,6-4.4C245.8,343.1,245.9,343.3,246.1,343.6z M172.2,489.3
				c0.7,1,1.5,1.9,3,1.7c0.2,0,0.5,0.1,0.7,0.2c1.8,1.6,3.4-0.3,5.1-0.3c0.2,0,0.7-0.9,0.6-1.3c-0.3-1.8,0.2-3.5-0.1-5.4
				c-0.2-1.4-0.6-2.8-0.5-4.3c0-1.5-0.6-2.9-0.8-4.4c-0.2-1.8-0.4-3.6-0.5-5.4c-0.1-2,0-4.1,0-6.1c0-1.7-0.4-3.4-1.2-4.8
				c-0.4-0.7-1-1.4-1.7-1.7c-1.3-0.4-2.9-1-4-0.5c-1.1,0.5-2,1.2-3.4,0.9c-0.4-0.1-1.2,0.4-1.3,0.7c-0.5,1.8-1,3.7-1,5.6
				c-0.2,5.6-0.2,11.1-3.3,16.1c-1.7,2.9-1.5,3-4.9,2.6c-1.6-0.2-2.1-0.7-2.3-2.4c-0.1-0.6,0-1.4-0.3-1.8c-0.5-0.5-0.6-0.7-0.1-1.3
				c0.3-0.3,0.2-1,0.2-1.5c0-0.5-0.1-1.1,0-1.6c0.7-3.7,1.4-7.3,2.2-10.9c0.1-0.3,0.1-0.6,0-0.9c-0.6-2.4-1.3-4.7-4.2-5.2
				c-0.6,0.3-1.2,0.7-1.8,1.1c-0.4-1.4-1.2-0.1-1.8-0.2c-0.7-0.2-1.4-0.2-2.1-0.4c-1.7,1.8-1.7,4-2.1,6c-0.9,4.5-1.6,9.1-1.8,13.7
				c-0.2,4.4,1.2,8.1,4.1,11.3c0.7,0.7,1.5,1.6,2.4,1.8c3.7,1,7.4,2.4,11.3,2.2c3.2-0.1,6.5-0.3,8.9-3
				C171.7,489.4,171.9,489.4,172.2,489.3z M208,456.6c-0.6,0.5-0.4,1.7-1.5,1.3c-0.2-0.1-4.4,0.1-4.4,0.2c-0.3,0.3-0.5,0.5-0.7,0.9
				c-0.7,1.3-0.5,2.6-0.1,3.9c0.7,2.1,1.4,4.2,2.1,6.2c0.5,1.4,0.8,2.9,1.4,4.3c0.4,1,1.1,2,1.4,3c0.9,3.2,2.2,6.2,3.6,9.1
				c1,2.1,2.4,4.1,3.3,6.3c1,2.3,2,4.5,3.5,6.4c0.8,1,1.4,1.9,2.9,1.5c0.3-0.1,0.8,0.4,1.2,0.6c0.2,0.1,0.6,0.3,0.8,0.3
				c0.9-0.6,1.9-0.3,2.9-0.3c0.7,0.1,1.3-0.2,1.8-0.8c1.3-1.5,1.8-3.3,2.4-5.1c1.6-4.3,3-8.7,4.5-13c0.9-2.7,1.7-5.4,2.6-8.1
				c0.2-0.7,0.3-1.4,0.4-2.1c0.1-0.7,0.4-1.5,0.1-2c-0.8-1.2,1.2-0.6,0.7-1.2c-0.6-0.9,0.4-1.4,0.3-1.9c-0.3-1.8,0.6-3.1,1.2-4.5
				c0.5-1.4,0.7-3,0.3-4.4c-0.6-2.6-2.7-3.8-5.1-3.9c-1.6-0.1-3.3,0.8-5,1.3c-0.1,0-0.2,0.2-0.3,0.3c-0.9,1.7-2,3.2-2.2,5.2
				c-0.2,2.4-0.2,4.8-0.8,7.1c-0.9,3.7-2.2,7.3-3.3,11c-0.4,1.3-0.9,2.5-1.5,4.1c-0.5-0.7-0.9-1.1-1.1-1.6
				c-2.6-5.9-4.7-11.9-6.4-18.2c-0.5-1.7-1.1-3.4-2.8-4.1C209,458,208.5,457.4,208,456.6z M134.5,297c-1.2,1.2-1.4,2.5-1.3,4
				c0.1,2.1,0.3,4.3,0.3,6.4c0,6-0.1,12.1-0.3,18.1c-0.1,2.7,0.4,5.6-1.8,7.9c-0.6,0.6-1.4,1.8-0.8,3.1c0.6,1.1,1,2.4,1.8,3.3
				c0.7,0.9,1.6,1.8,2.6,2.1c1.7,0.5,3.6,0.4,5.4,0.5c7.1,0.5,13-2.4,18.2-6.9c1.1-0.9,1.9-2.1,2.1-3.6c0.3-1.8,0.3-3.5,0.5-5.3
				c0.5-4.5-1-8.2-4.4-11.1c-1.9-1.7-3.8-3.2-6.8-2.9c-1.5,0.1-3.1,0.4-4.6,0.6c-0.8,0.1-1.7-0.1-1.6-0.8c0.1-1-0.7-1.8,0-2.9
				c0.4-0.6,0.2-1.7,0.2-2.5c0-1.2-0.4-2.5-0.1-3.5c0.9-2.3-0.6-3.8-1.4-5.6c-0.1-0.2-0.6-0.4-0.8-0.3c-1.6,0.9-1.5-0.7-1.9-1.4
				C138.1,296.9,136.5,298.5,134.5,297z M117,341.3c-0.2-0.8-0.5-1.2-0.5-1.7c0-0.5,0.4-1,0.4-1.6c0.4-5.1,0.8-10.3,1-15.4
				c0.1-1.8,0.4-3.7-1.1-5.2c-0.9-0.9-1.7-2.2-2.7-2.5c-2.7-0.8-5.6-1.2-8.4-1.7c-0.9-0.2-1.9-0.1-2.8-0.2c-3.1-0.1-6.3,0-9.1,1.3
				c-3.3,1.5-6.5,3.3-9.7,5.1c-0.6,0.3-1.1,0.9-1.6,1.5c-2.5,2.7-3,6.1-3.3,9.5c-0.1,1-0.2,2.2,0.2,3c1.5,3.3,3.1,6.6,6.8,7.9
				c0.4-0.3,0.6-0.5,1-0.7c0.2,0.7,0.3,1.2,0.4,1.7c0.7,0.1,1.3,0.2,1.9,0.2c3.1,0.1,6.2,0.6,9.2-0.4c2.1-0.6,4.1-1.5,6.1-2.4
				c1.3-0.6,1.5-0.6,2.4,0.7c0.2,0.4,0.7,0.7,0.9,1.1c0.5,1.6,1.6,1.7,2.9,1.2c1.1-0.4,2.1-0.7,3.2-1c0.6,0.6,0.5,2.2,2,1.2
				c-0.1-0.3-0.3-0.7-0.5-1.1C116.2,341.6,116.7,341.4,117,341.3z M463.6,394.5c-1.4-0.8-2.5-1.6-3.6-2.2c-0.8-0.5-1.6-0.6-2.7-0.3
				c-4,1.2-7.4,3.4-10.5,6.2c-0.9,0.8-1.7,1.8-3.1,2.1c-0.2-1.2-0.3-2.2-0.4-3.4c-0.4,0.1-0.8,0.2-1.3,0.2c-0.7-1.2-1.5-2.3-3.1-2.8
				c0.1,0.4,0.2,0.7,0.2,0.9c-0.5,0.1-1.1,0.2-1.6,0.2c-0.6-0.1-1.2-0.4-1.8-0.4c-0.9,0-2-0.2-2.7,0.2c-0.6,0.4-0.9,1.5-0.9,2.3
				c0,2.4,0,4.9,0.3,7.3c0.2,1.9,0.6,3.9,1.3,5.7c1.1,3.1,1.6,6.3,1.3,9.5c0,0.5-0.2,0.9-0.2,1.4c0.2,3,0.5,6,0.8,9.1
				c0.3,3.4,1.3,6.5,3.4,9.2c0.9,1.1,1.8,1.7,3.4,1.3c1.5-0.4,3.1-0.6,4.6-0.6c1.1,0,1.6-0.6,1.9-1.5c0.4-1.5,0.9-3.1,1-4.6
				c0.1-1.9-0.2-3.8-0.3-5.8c0-0.5,0-1.1,0.1-1.6c0.3-1.3,0.2-2.6-0.2-3.9c-0.5-1.4-1.4-2.9-0.4-4.5c0.1-0.2-0.1-0.8-0.3-1.1
				c-0.6-1.4-0.6-2.7,0.5-4c0.6-0.7,1.1-1.5,1.8-2.2c1.1-1.1,2.3-2,3.4-3c3-3.1,6.1-5.9,10.4-7c0.1-1.3,0.6-2.5-0.5-3.4
				c-0.7,0.1-0.3,1.6-1.5,0.9C463,397.4,463.3,396,463.6,394.5z M114.8,378.2c-0.4-0.2-0.9-0.5-1.3-0.5c-0.4,0-1,0.3-1.1,0.6
				c-0.3,0.9-0.5,2-0.6,2.9c-0.1,1.1,0.2,2.2,0.2,3.3c0.1,2.7,0,5.4,0.1,8.1c0.1,4.5,0.5,8.9,0.5,13.4c0,3.9,0.2,7.7,0.4,11.6
				c0.2,3.9,0.3,7.7,0.5,11.6c0.1,4,1.2,7.6,4.1,10.1c1.1,0.1,1.8,0.2,2.5,0.2c1.4,0.1,2.9,0.3,4.3,0.1c0.8-0.1,1.7-0.9,2.1-1.6
				c0.8-1.3,0-3,0.8-4.4c-1.4-2.5-0.5-5.4-1.4-8c-0.4-1.2,0.5-2.6-0.5-3.7c0.9-0.9-0.6-1.9-0.2-2.2c1.6-1.2-1-3,0.6-4
				c-1-0.8,0.1-2-0.5-2.7c-0.7-0.8,0.8-2-0.6-2.5c-0.1,0-0.1-0.5,0.1-0.7c0.9-1.5,0.6-2.9,0.4-4.6c-0.2-1.3,0.3-2.7-0.6-3.9
				c1-1.9,0-3.9,0.3-5.9c0.4-3.3,0.4-6.7-0.5-9.9c-0.2-0.8,0.1-1.7,0.1-2.5c0-0.4,0-1.1-0.3-1.3c-1.1-0.7-0.9-1.7-1.1-2.7
				c-0.1-0.5-0.3-1-0.5-1.5c-0.7,0.2-1.1,0.3-1.7,0.5c0.1-0.5,0.1-0.8,0.1-0.9c-1.2-0.2-2.3-0.4-3.4-0.6c-0.1,1.7-0.7,2.3-1.1,1.7
				C115.6,377,115.4,378.5,114.8,378.2z M198.8,323.7c-1-0.8-1.7-1.6-2.5-2c-3.4-1.6-7-1.6-10.5-1c-2.2,0.4-4.8,0.9-6.4,2.8
				c-3,3.6-6,7.3-5.5,12.5c-0.9,2.8,0.6,5.1,2,7.3c1,1.5,2.2,3.1,4,3.5c1.3,0.3,2.4,0.9,3.3,1.6c0.5,0.4,0.8,0.7,1.5,0.7
				c1.5,0,3.1,0.4,4.6,0.5c0.8,0,1.6-0.6,2.3-0.6c2,0.2,3.6-0.7,5.2-1.5c-0.8-1-1.6-2-2.3-3c0.3,0,0.8-0.1,1.6-0.3
				c-0.6-1.1-1-2.2-1.7-3c-0.6-0.7-1.6-1.2-2.4-1.5c-1.1-0.3-2.3,0-3.5-0.2c-3.8-0.7-4.7-1.2-3.2-5.7c0-0.1,0-0.2,0.1-0.2
				c1-1.1,1.8-2.4,3-3.2c1.1-0.8,2.5-0.3,4,0c3.1,0.7,6.1,0.4,8.3-2.5c-1-0.5-1.9-0.9-2.6-1.2C198.3,325.5,198.6,324.6,198.8,323.7z
				 M442.8,308.8c-1.3,1.4-1.9,2.8-2.2,4.3c-0.9,5.5-1.9,10.9-2.7,16.4c-0.3,1.9-1,4.2,1.1,5.7c0,0,0,0.2,0,0.2c0.8,1,0.6,3.3,3,2.4
				c0.1-0.1,0.5,0.4,0.7,0.6c0.6,0.5,1.1,1,2,0.3c0.4-0.3,1.2,0.1,1.8,0.1c0.7-0.1,1.6-0.1,2.1-0.5c0.9-0.7,1.5-1.7,2.2-2.7
				c0.4-0.6,0.2-1.2,0.2-2c-0.2-2.2-0.2-4.5-0.1-6.7c0.1-1.6,0.6-3.2,1-4.8c0.5-1.9,0-4,1.3-5.7c0.2-0.2,0.2-0.6,0.2-0.9
				c0.2-1.9-0.8-3.6-1.5-5.3c-0.1-0.3-0.6-0.5-0.9-0.7c-0.9-0.4-1.9-0.7-2.9-1.1c-0.9,0.4-2,0.8-2.9,1.4
				C444.1,310.6,443.4,310.3,442.8,308.8z M333.8,600.2c-0.1-0.4-0.2-0.8-0.3-1.1c-1.2-2.8-2.5-5.5-3.6-8.2
				c-1.3-3.1-2.8-6.2-5.3-8.5c-1.4-1.4-2.6-3.6-5.3-3c-0.2,0-0.4-0.2-0.6-0.3c-1.1-1.1-2-0.5-2.9,0.2c-0.5,0.4-1.1,0.9-1.7,1
				c-3.1,0.7-4.5,1-4.6,4.3c0.4,0.6,1.1,1.1,1.2,1.7c0.4,2.1,1.9,2.5,3.6,2.4c0.1,2,0.1,2,1.8,1.9c0.7,1,1.7,1.9,1.9,3
				c0.4,2,1.6,3.6,2.3,5.4c1,2.8,2.7,5.2,4.1,7.7c1.8-0.5,3.5-0.9,5.1,0.7c0.9-1.2,2-1.4,2.8-0.7c2.3-2,0.5-4.1,0.3-6.1
				C333.2,600.3,333.4,600.3,333.8,600.2z M277.6,580.3c-0.4,1.1-1.3,2.5-1.1,3.7c0.2,1.4-0.2,2.7-0.1,4c0.1,1.5-0.2,2.8-0.9,4.1
				c-0.9,1.5-1.7,3.1-2.5,4.6c-0.5,1-0.8,2-1,2.5c1,1.7,1.7,3,2.5,4.4c0.8-0.3,1.8-1.1,2.9-0.2c0.8,0.7,2.1-0.9,2.7,0.7
				c0.6-0.5,1.2-1,1.9-1.5c0.1,0.8,0.1,1.6,0.2,2.7c3.4-4.1,5.9-8.3,6.3-13.4c0-0.6,0.4-1.2,0.4-1.9c0.1-1.4,0.4-2.8,0.2-4.2
				c-0.1-1-0.8-2-1.2-3c-0.2,0.3-0.4,0.7-0.5,0.9c-0.9-0.9-1.6-2.1-2.7-2.6c-1-0.4-0.4-1-0.7-1.4c-0.1-0.1-0.3-0.1-0.5-0.2
				c-0.2,0.5-0.4,0.9-0.4,1.2C281.2,580.6,279.5,580.5,277.6,580.3z M303.7,602c0.1-1.5,1.4-0.7,2.3-0.7c0.1,0,0.1,0.2,0.2,0.4
				c-0.4,0.1-0.8,0.2-1.3,0.3c2,1,2.6,0.8,3.5-0.8c0.5-0.9,0.5-1.9,0.9-2.7c0.5-1.1,0.5-2,0.4-3.2c-0.1-1.2-0.1-2.4-0.4-3.6
				c-0.4-1.7-0.5-3.4-0.9-5.1c-0.2-0.8-0.9-1.6-1.6-2c-1.1-0.5-2.4-0.6-3.6-1c-1.3-0.5-1.7-0.1-1.6,1.2c0,0.3-0.4,0.6-0.6,1
				c-0.2-0.6-0.3-0.9-0.5-1.5c-0.7,0.4-1.3,0.8-2,1.2c-0.4-0.5-0.8-1-1.2-1.5c-0.2,0-0.3,0.1-0.5,0.1c-0.2,1.5-0.8,3.2-0.5,4.6
				c0.7,2.8,0.8,5.5,0.8,8.3c0,0.5,0,1.2,0.3,1.3c1.5,0.9,1.6,2.8,3,3.4C301.4,601.8,302.5,601.9,303.7,602z M471.3,288.7
				c-2.7-0.2-5.5,3-4.7,5.1c0.6,1.5,1.4,3.1,2.5,4.3c0.8,0.8,2.4,0.9,3.6,1.3c1.4,0.5,2.8,0.1,4.2-0.3c2.1-0.5,2.8-1.4,2.7-3.7
				c0-0.7,0.3-1.5,0.4-2.3c0.1-0.5,0.3-1.1,0.1-1.5c-0.9-2.5-3.7-4.2-6.5-3.9c-0.6,0.1-1.7-0.7-1.8,0.7
				C471.7,288.6,471.3,288.7,471.3,288.7z M443.1,288.6c-0.5-1.3-1.3-1.7-2.1-1.3c-0.7,0.3-0.8,1.1-1,1.9c-0.3,1.4,0.9,2,1.2,3
				c0.5,1.6,1.5,2.8,3.4,3.1c0.7,0.1,1.2,0.8,1.9,1.2c1.2-1.3,2.9-0.2,4.4-0.8c1.5-0.7,2.1-2,3.3-2.9c-0.4-0.1-0.8,0-1.1,0
				c-1,0-2.1-1.3-1.7-2.1c0.3,0.2,0.6,0.4,0.8,0.5c1.7-0.9,0.2-2,0-2.7c-0.7-1.9-2.7-2.5-4.3-3.2c-0.2,0.1-0.3,0.1-0.4,0.2
				c-0.1,0.4-0.2,0.8-0.2,1.1c-1.2,0-1.2,0-2.1,1.2C444.2,287.2,443.5,286.9,443.1,288.6z M427.6,449.7c-2.6-0.3-4.5,0.3-6.4,1.6
				c0.5,0.2,1.2,0.7,1.3,0.6c1.2-1.5,1.9,0.3,2.7,0.6C426,451.6,426.7,450.8,427.6,449.7z M528,374.9c0,1.1,0,2.1,0,3.1
				c1.7-0.2,1.3-1.6,1.7-2.7C529.1,375.2,528.6,375.1,528,374.9z M528.4,373.6c0.2-0.8,0.4-1.4,0.6-2.1
				C527.9,372.1,527.9,372.1,528.4,373.6z"/>
			<path d="M387.5,427c-3.7,0.3-7.1-0.4-10.6,0.1c-1.7,0.3-3.7-0.1-5.2-1.5c-0.5-0.5-1.3-0.7-1.8-1.1c-0.4-0.3-0.8-0.8-1-1.2
				c-0.4-0.9-0.6-1.8-1-2.7c-0.3-0.8-0.3-1.5,0.1-2.2c0.4-0.8,1-0.7,1.7-1c1.5-0.5,2.9-1.5,4.5-1.7c2.2-0.3,4.5-1.1,6.7-0.1
				c0.1,0.1,0.3,0.2,0.4,0.2c0.9-0.4,1.8-0.6,2.9-0.4c1,0.2,2,0.2,3.1,0.2c1.2-3.5,0.2-6.9,0.6-10.3c-0.2-0.1-0.3-0.1-0.5-0.2
				c-0.7,0.7-1.3,1.4-2.1,2c-0.8,0.6-1.8,1.1-2.7,1.6c-1.9-0.9-3.8-0.3-5.7,0.1c-0.4,0.1-0.6,0.3-1.1,0c-1.4-0.7-2.9-1-4.7-1.6
				c-0.2-1.5-2.3-0.9-3.2-2.3c-1-1.8-2.7-3.2-3.4-5.1c-0.6-1.6-0.3-3.6-0.3-5.4c0-4.5,2.2-7.9,5.2-11c1.9-1.9,4.1-3.5,6.2-5.2
				c2.8-2.3,6.1-3.4,9.5-4c1.3-0.2,2.9-0.3,4,1.1c0.3,0.4,1.2,0.4,1.9,0.5c1.3,0.2,2.6,0.1,3.5,1.4c0.7,0.9,2.3,0.9,2.6,2.3
				c1.8,0.6,1.6,2.3,1.8,3.6c0.3,1.9,0.2,3.9,0.3,5.9c0,0.4,0.2,0.8,0.4,1.1c0.4,0.5,0.3,0.7-0.2,1.1c-0.3,0.2-0.5,1-0.3,1.3
				c1.6,2.6,1.1,5.6,1,8.3c-0.1,2.6,0.7,5,0.4,7.6c-0.2,2.1-0.1,4.3-0.1,6.7c0.6,0.1,1.4,0.4,2.2,0.4c2.1,0,4.1-0.1,6.2,0
				c1.3,0.1,2.6,0.3,3.8,0.7c0.7,0.3,1.3,1.1,1.7,1.8c0.3,0.4,0.3,1.1,0.2,1.6c-0.2,0.8-0.6,1.6-0.8,2.5c1.3,0.8,1.3,0.8,3,0.5
				c-0.1,0.6-0.3,1.1-0.4,1.6c0,0.4,0.1,0.9,0.2,1.5c-3.1,0.7-6.1,1.7-9.4,1.7c-2.2,0-4.4-0.2-6.7,0.9c-0.1,1.1-0.2,2.3-0.2,3.6
				c-0.1,2.3,0.1,4.7-0.5,6.8c-0.3,1.2-0.4,2.6-1,3.8c-0.4,0.8-1,0.9-1.7,1c-1.1,0.2-2.1,0.6-3.2,0.9c-0.8,0.3-1.6,0.7-2.4,0.8
				c-1.5,0.3-2.9-0.1-3.6-1.5c-0.9-1.8-2.3-3.4-1-5.8c0.7-1.3,0.6-3.1,0.7-4.7C387.6,431.2,387.5,429.2,387.5,427z M382.4,389
				c-4.1,2.2-6,5.5-4.6,8.1C379.7,394.6,381.8,392.3,382.4,389z"/>
			<path d="M260.3,555c-0.8-0.4-1.3-0.7-1.9-1.1c1.1-1.1,1.5-2.8,3.5-2.2c0.7-1.4,2.5-0.4,3.4-1.8c0.4-0.6,1.7-0.6,2.6-0.9
				c2.5-0.6,5-1,7.4-1.7c4-1.2,8-1.9,12.1-2.4c3.8-0.4,7.7-0.9,11.5-1.2c2.3-0.2,4.7,0,7,0c1.6,0,3.1-0.1,4.7-0.1c2,0,4,0.2,6,0.6
				c1.1,0.2,2.5-0.2,3.5,0.3c1.3,0.6,2.7,0.8,4,1.4c1.3,0.7,2.5,1.4,3.7,2.2c3.4,2.4,6.2,5.4,8.4,9c-0.5,0.7-1.3,1.4-0.6,2.5
				c0.2,0.2-0.5,1.1-0.8,1.8c0.6,0,1.2-0.1,1.8-0.1c-1,3.3-3.7,4.2-6.5,4.9c-3.5,0.9-7,1.2-10.6,1.4c-0.5,0-1.1,0.2-1.6,0.4
				c-4,1.1-8,2.4-12.1,3.3c-2.7,0.6-5.5,0.8-8.2,1c-2.7,0.2-5.4,0.3-8.1,0.3c-1.4,0-2.9,0.5-4.2-0.4c-0.2-0.2-0.7,0.2-1.1,0.2
				c-1.3,0-2.6,0-3.9-0.1c-0.8-0.1-1.5-0.4-2.3-0.4c-1.2,0.1-2.3,0.3-3.4-0.4c-0.3-0.2-1.4-0.8-1.7,0.4c-0.8-0.2-1.7-0.3-2.4-0.7
				c-1.9-0.9-3.9-1.8-5.6-3c-1-0.7-2.1-0.2-3.2-1c-2.6-1.9-4-4.4-5.1-7.2c-0.5-1.3,0.4-2.4,1.5-3.2
				C258.7,556.5,259.4,555.8,260.3,555z M303,554.8c0.6,1.9,1.1,3.4,1.7,5.1c4.2-1.2,8.2-2.3,12.1-3.5c-2.9-0.7-5.7-0.8-8.5-1.2
				c-0.9-0.1-1.6-0.3-2.5,0.2c-0.3,0.2-0.8-0.1-1.3-0.2C304.2,555.3,303.8,555.1,303,554.8z M285.8,561c0.1-1.8-0.2-3-0.7-3.4
				c-0.9-0.7-1.6-0.2-2.4,0.3c-0.1,0.1-0.3,0.1-0.5,0.1c-2-0.6-3.9,0.4-5.7,0.8c-0.9,0.2-2.4-0.1-2.8,1.5c3.2,1.9,6.9,0,10.1,1.1
				c0.3,0.1,0.6,0.1,0.9,0.1C285.1,561.3,285.4,561.1,285.8,561z"/>
			<path d="M140.2,398.7c1.2-1.2,2.1-2.3,3.1-3.3c0.4,0.3-0.4,1.6,1.2,1.2c0-0.3-0.1-0.7-0.1-1.3c1.9,0,3.6,0.5,4.6,2.1
				c1.9,2.9,3,6.2,3.6,9.7c0.1,0.5-0.2,1.1-0.3,1.6c2.3,0.5,4.1-0.8,5.8-2c1.9-1.4,3.9-2.1,6.1-2.5c1.3-0.3,2.7-0.5,4.2-0.3
				c1.6,0.2,2.8,1.2,4.3,1.4c1.1,2,2.8,1,3.9,0.4c3.3-1.8,6.8-2.2,10.5-2.6c0.5,0,1,0,1.4,0.2c4.7,2.2,8,5.8,10.1,10.6
				c0.5,1.2,0.9,2.5,1.3,3.7c0.1,0.4,0,0.9,0,1.3c0,0.4-0.2,0.8-0.1,1.1c0.9,2.7,1.4,5.3,1.5,8.2c0.1,1.5,0.7,3.1,0.9,4.7
				c0.1,0.6,0.7,1.6-0.7,1.7c-0.2,0-0.3,1,0.4,1.6c1,0.8,0.8,1.9-0.2,1.9c-1.1,0-0.1,1-1.1,0.9c-0.2-0.3-0.5-0.8-0.8-1.2
				c-0.2,0.1-0.7,0.3-0.8,0.6c-0.5,1.1-1.3,0.9-2.3,0.8c-1-0.1-2,0-3.2,0.4c-1.3-1.8-2.6-3.5-3.8-5.4c-0.3-0.5-0.4-1.2-0.4-1.9
				c0.1-1.8-0.3-3.5-0.7-5.2c-0.3-1.5-0.5-3.2-0.8-4.8c-0.3-1.7-0.6-3.4-1.1-5c-0.5-1.7-0.9-1.9-2.3-1.7c-1.5,0.2-2.4,1-2.5,2.4
				c0,0.9,0.1,1.8,0.1,2.8c0,0.2,0.1,0.6,0,0.7c-1.1,0.5-0.1,1.5-0.4,2.3c-0.3,0.7,0.4,1.7,0.4,2.6c0,3.6,0.1,7.3-0.1,10.9
				c-0.1,1.7-1.6,2.6-3.3,3c-2.2,0.4-4.5,2.1-6.4-0.5c-1.6-2.2-3.3-4.4-3.5-7.4c-0.1-2-0.8-4-1.2-6c-0.6-3.3-1.1-6.6-1.7-9.8
				c-3.6,1.1-6.2,3.2-7.2,6.8c-0.7,2.6-1.3,5.2-1.8,7.8c-0.1,0.4,0,0.7,0.1,1.1c0.3,2.3-0.3,4.4-0.8,6.6c-0.2,0.9-1.1,1.6-1.9,2.6
				c-0.3-0.6-0.5-0.9-0.7-1.2c-1,0.4-1.7,1.8-3.1,0.3c-0.4-0.4-1.6-0.1-2.5-0.1c0,0.2,0,0.4,0.1,0.9c-3.2-2.5-5.3-5.3-5.5-9.2
				c-0.1-1.6-0.1-3.2-0.2-4.7c-0.2-3.5-0.4-7.1-0.7-10.6c-0.1-1.9-0.2-3.8-0.6-5.7c-0.6-3.2-0.7-6.6-2.5-9.5
				c-0.5-0.8-0.5-1.9-0.6-2.8c0-0.4,0.4-1,0.8-1.2c0.2-0.1,0.8,0.3,1.1,0.6C139.9,398.1,140,398.5,140.2,398.7z"/>
			<path d="M513.7,496.4c0.1,0.6,0.3,1.2,0.4,1.9c-3.6,1.2-6.9,2.7-10.8,2.8c-2.1,0.1-4.2,0.8-6.2,1.5c-3.9,1.4-7.9,1.9-11.9,2.6
				c-1.1,0.2-2.3,0.5-3.4,0.7c-3.6,0.6-7.3,1.3-11,1.3c-0.4,0-0.7,0.5-1.2,0.8c-0.7-0.9-1.7-1.3-3.1-1.4c-0.8,0-2.2-1.1-2.2-1.6
				c0.2-1.6-1.2-0.9-1.6-1.4c0.2-3.4,2.1-5.7,4.4-7.9c1.1-1.1,2.1-2.2,3.1-3.3c0.4-0.4,0.7-1,1.2-1.9c-2.6,0.6-4.6,0.3-6.7-0.4
				c-2.5-0.8-3.3-2.9-4.1-4.9c-0.4-1.2,0.5-2.3,1.6-3c2.2-1.3,4.4-2.6,6.7-3.6c3.8-1.7,8-2.5,12.2-2.8c1.4-2.3,2.7-4.5,4.3-7.2
				c-1.7,0.2-3,0.3-4.2,0.4c-3.9,0.5-7.9,1-11.8,1.5c-0.2,0-0.6,0.3-0.6,0.2c-1.4-2.2-4.8-1.9-5.7-4.9c-0.4-1.6-0.5-2.5,1.1-3.3
				c2.6-1.2,5.3-2.2,8.3-2.4c4.9-0.4,9.8-0.9,14.6-1.5c2.8-0.3,5.6-0.8,8.4-1c1.7-0.1,3.5-0.2,4.7,1.5c1.6-0.4,1.3,2,2.8,2
				c0.3,0,0.3,3.3,0,3.7c-0.9,1.1-1.8,2.2-2.7,3.3c-0.9,1.1-1.9,2.3-2.9,3.5c1.7,0.9,3.1-2.1,4.6-0.1c1.6-0.4,2.8,0.9,4.4,1.1
				c-0.3,0.6-0.5,0.9-0.7,1.2c0.6,0.5,1.5,0.8,1.7,1.4c0.7,2,0.1,4-0.3,5.9c-0.2,0-0.3,0.1-0.5,0.1c-0.2-0.7-0.5-1.3-0.7-2.2
				c-1.2,2-3.4,2.3-5.4,2.4c-2.8,0.2-5.3,1.7-8,2.2c-0.1,0-0.1,0.1-0.2,0.1c-2.7-0.3-3.3,2-4.5,3.6c-1.6,2.3-3.3,4.5-4.9,6.7
				c-0.2,0.3-0.4,0.7-0.7,1.3c0.8,0,1.3,0,1.8-0.1c4.5-0.8,8.8-2.1,13.1-3.4c1.6-0.5,3.3-0.8,5-1c1.8-0.3,3.6-0.4,5.4-0.7
				c1.9-0.2,1.9-0.2,4,1.3c0.4,0.3,1,0.2,1.9,0.3c-1.2,1.2,0.1,3.2-1.9,4.2C512.3,496.2,513,496.3,513.7,496.4L513.7,496.4z"/>
			<path d="M372.9,317.3c-0.2,0.1-0.4,0.3-0.7,0.6c2.1,1,2.1,3.2,2.8,5c0.5,1.4,0.6,3,0.7,4.5c0.1,0.5,0.9,1.4-0.5,1.7
				c0,0-0.1,0.1-0.1,0.2c1.3,0.5,0.5,1.5,0.6,2.3c0.1,0.7,1.4,1,0.4,2c-0.9,0.9,0.6,1.3,0.4,2c-0.1,0.6-0.1,1.3-0.2,1.9
				c-0.1,0.8-0.5,1.8-0.2,2.5c0.4,1.1,1.3,2,0,3c1.4,0.9-0.1,1.9,0.2,3c0.2,0.9,0.7,2-0.2,3.1c-0.3,0.4-0.2,1.1,0.6,1.1
				c-0.2,0.5-0.5,0.9-0.6,1.4c-0.4,2.1-1.5,3.8-2.9,5.4c-3.7,4.3-8,7.8-12.9,10.7c-1.7,1-3.3,2.1-5.1,2.6c-2.1,0.6-4.3,0.8-6.4,1.1
				c-1.2,0.2-2.4,0.1-3.5,0.3c-1.5,0.2-2.7-0.5-4.1-1.1c-2.9-1.2-4.2-3.8-5.9-6.1c-0.7-1-0.6-2,0.5-2.3c2.1-0.7,4.1-1.6,6.1-2.4
				c0.5-0.2,1.3-0.1,1.9,0.1c3.1,0.8,6,0.3,8.6-1.6c3.1-2.2,6.1-4.6,9.1-7c0.9-0.7,1.6-1.8,2.2-2.8c0.3-0.6,0.4-1.3,0.5-2
				c0.1-1.9,0-3.8,0-5.9c-1.3,0-2.4,0.1-3.6,0.7c-1.7,0.9-3.6,1.5-5.5,1.5c-2.3,0-4.7,0.7-6.9,0c-2.3-0.7-4.5-1.4-6.6-2.3
				c-0.8-0.3-1.5-1-1.9-1.7c-0.9-1.3-1.8-2.7-2.5-4.2c-0.4-0.8-0.4-1.9-0.2-2.8c0.8-5.8,3.3-10.6,8.3-13.8c2.9-1.9,6.2-3.2,9.6-4
				c2.2-0.5,4.6-0.4,6.9-0.5c0.9-0.1,1.8-0.2,2.6-0.1c1.9,0.3,3.9,0.5,5.7,1.2C371.2,315.3,372,316.5,372.9,317.3z M360.5,325.1
				c-1.3,0.2-2.5,0.4-3.7,0.7c-3.2,0.8-5.4,2.7-6.6,5.9C355.5,331.9,359.3,329.4,360.5,325.1z"/>
			<path d="M337.4,437.7c-0.5,0.3-1,0.7-1.6,1.1c1.7,1.7,0.3,3-0.4,4.4c-1.4-0.1-0.7-1.5-1.4-2.6c-0.2,1-0.2,1.6-0.3,1.9
				c-1.2,0.4-2.4,0.7-3.4,1.1c-0.8,0.3-4.2-0.9-4-1.6c0.4-1.4-1.9-1.2-1.2-2.7c0.3-0.7-0.4-2-0.3-3.1c0-3.5-0.4-7-0.5-10.5
				c-0.1-2.4,0-4.8,0-7.3c0-2.1,0.6-4.4-0.1-6.3c-0.9-2.5-0.5-5-0.9-7.5c-0.4-2.4-0.6-5-0.4-7.4c0.4-3.4-0.7-6.8,0.6-10.1
				c0.1-0.2-0.1-0.6-0.2-0.9c-0.5-3.4,0.5-6.5,2-9.4c0.6-1.3,1.8-2.3,3.3-2.8c1-0.4,2-1.1,3-1.3c1.1-0.2,2.3-0.3,3.4-0.3
				c2.5-0.1,5.1-0.2,7.6-0.2c0.5,0,1.1,0.3,1.6,0.4c3.8,1.3,7.3,3,10.1,5.9c0.7,0.7,1.5,1.2,2,2c0.5,0.8,2.3,1.3,1.2,2.8
				c0,0,0.1,0.3,0.2,0.3c1.7,0,1.5,1.4,1.8,2.3c0.1,0.3-0.1,0.8-0.1,1.2c-0.1,0.5-0.4,1.3-0.2,1.5c1.1,0.8-0.5,1.7,0.1,2.3
				c0.8,0.9,0.2,1.2-0.2,2c-0.4,0.8-0.1,1.8-0.7,2.8c-2,3.4-5.2,4.8-8.7,5.7c-3.7,1-7.4,1.6-11.1,2.4c-2.2,0.4-2.9,1.6-2.7,4.1
				c0.3,3.7,0.4,7.3,0.5,11c0,0.6-0.3,1.3-0.5,1.9c1.6,0.3,0,0.7,0,1.1c0.1,0.9,0.3,1.9,0.4,2.8c0.2,2.5,0.5,4.9,0.7,7.4
				c0,0.2-0.2,0.5-0.4,0.8c-0.4,0.6-0.6,1.1,0.1,1.6c0.2,0.1,0.3,0.8,0.1,0.9C335.9,436.6,337.4,436.8,337.4,437.7z M336.2,383.7
				c-0.2,1.6-0.4,2.7-0.5,3.8c-0.1,0.8,0.3,1.7-0.7,2.3c-0.3,0.2-0.1,0.9,0.8,2.1c0.2,0.4,0.9,0.7,1.3,0.7c2.8-0.5,5.6-1,8.4-1.7
				c1.8-0.5,2.2-2.6,0.9-4c-1-1.1-2-2.1-3.6-2.3C340.7,384.4,338.6,384,336.2,383.7z"/>
			<path d="M275.3,444.3c-2.1,0.8-3.8-0.2-5.3-0.9c-2.1-1-3.7-2.7-5.1-4.5c-0.8-1-1.4-2.1-2.2-3.1c-1.5-1.9-1.8-4.1-1.9-6.5
				c-0.2-4.5,0-8.9,1.6-13.1c1.6-4.3,4.5-7.6,8.7-9.7c0.4-0.2,0.8-0.5,1.2-0.8c3.7-2.5,7.8-3.1,12.2-2.3c1.4,0.2,1.6,2,3.1,1.8
				c2.6,1.9,5.3,3.8,7.8,5.9c1.3,1.1,2.4,2.5,3.7,3.9c1.3-0.4,2.6-0.8,4.1-1.2c1,1.1,2.5,1.1,4.1,0.6c0.6,0.8,1.2,1.7,1.7,2.4
				c-0.4,1-0.7,2-1.2,3.2c0.9,0.1,1.6,0.2,2.2,0.3c0.1,0.2,0.2,0.4,0.1,0.5c-1.2,2.8-3.7,3.7-6.2,4.7c-0.6,0.2-1.2,0.3-1.8,0.5
				c-1.1,0.5-1.7,1.3-1.7,2.5c-0.3,4.4-2.5,7.9-5.2,11.2c-2.7,3.4-6.7,4-10.3,5.7c-0.5,0.2-1.2-0.1-1.8-0.1c-1.9,0.1-3.8,0-5.6,0.3
				C276.3,445.9,275.8,445.4,275.3,444.3z M281.4,426.1c-0.9-0.6-1.6-1.5-2.2-1.4c-1.3,0.2-2.3-0.4-3.4-0.8c-1-0.3-1.3,0-1.6,0.7
				c-0.8,1.8-1.2,3.5-0.5,5.5c0.9,2.7,1,3.2,3.8,3.6c1.1,0.2,2.2,0,3.3,0.2c1.9,0.4,3.2-0.4,4.3-1.8c1.1-1.3,2.5-2.5,2.6-4.5
				c-1.1-0.2-2.1-0.4-3.1-0.5c-1.2,0-2-0.6-2.3-2C281.8,425.7,281.5,426,281.4,426.1z"/>
			<path d="M256.6,455.1c2.4,1.1,4.2-0.7,5.8-0.8c1.1,0.7,1.9,1.2,2.6,1.8c0.7,0.6,1.5,1.3,1.6,2.1c0.3,1.6,0.3,3.2,0.4,4.8
				c0.1,0.8,0.4,1.5,0.5,2.3c0.3,2.8,0.3,5.7,0.8,8.5c0.6,3.4,1.6,6.8,2.5,10.2c0.2,0.9,0.9,1.6,1.5,2.6c2.7-2.3,4.4-5,5.8-7.8
				c0.6-1.1,1-2.3,1.7-3.4c0.5-0.8,1-1.8,2.2-0.6c0.1,0.1,0.4,0.1,0.4,0c1.2-1.8,3.5-0.6,4.6-1.6c1.1,0.5,2,0.9,2.8,1.4
				c0.5,0.3,0.9,0.7,1.3,1.1c2.1,2.2,3.7,4.8,5,7.5c0.1,0.3,0.3,0.5,0.7,1c0.3-0.7,0.6-1.1,0.7-1.6c1.1-4.1,2.4-8.3,3.3-12.5
				c0.5-2.4,0.5-4.9,0.6-7.4c0.1-2.8,0-5.7,0.9-8.4c0.2-0.7,0.5-1.5,0.9-2.6c1.1,1.6,2.2,0.5,3.3,0.8c1.5,0.4,1.6-1.5,2.5-1.9
				c0.9,0.4,1.7,0.9,2.6,1.3c-0.1,0.2-0.2,0.4-0.3,0.7c0,0.1,0.1,0.2,0.2,0.2c0.6,0.4,1.2,0.8,1.7,1.2c-1,1.2,1.3,1.8,0.5,3.3
				c-0.9,1.8-0.6,4.1-0.7,6.2c0,1.5,0.2,3.3-0.9,4.9c-0.3,0.4,0.2,1.2,0.2,1.8c-0.5,3.1-0.8,6.3-1.6,9.4c-0.7,2.9-1.9,5.7-2.9,8.5
				c-0.4,1.2-1,2.3-1.4,3.5c-1.6,3.8-2.6,4.5-6.6,4.4c-4.9-0.2-8.8-2.2-11.6-6.3c-0.5-0.7-1-1.4-1.9-2.5c-0.5,0.7-0.7,1.3-1,1.7
				c-1.6,1.9-3.1,3.9-4.9,5.5c-2.9,2.6-6.4,3.1-10.2,1.9c-5-1.5-7.7-5.4-10-9.6c-1.8-3.4-2.4-7.1-2.8-10.9c-0.2-1.6-0.7-3.2-0.9-4.8
				c-0.3-2-0.5-4.1-0.7-6.2c-0.2-2-0.4-3.9-0.6-5.9C255.3,457.6,255.5,456.3,256.6,455.1z"/>
			<path d="M473,440.8c-0.6-1.1-1.5-2.5-2.2-4.1c-0.2-0.4-0.2-1.1,0-1.3c1-0.9,2.1-1.7,3.3-2.7c0.3,0.6,0.4,0.9,0.6,1.3
				c0.6-0.5,0.5-2.2,1.9-1.4c4.9-1.8,9.9,0.2,14.8-0.6c2.8-0.4,5.5-0.8,8.2-2.1c0.2-0.7,0.4-1.4,0.6-2.2c-0.4-0.8-0.8-1.6-1.3-2.4
				c-0.3-0.6-0.6-1.4-1.6-0.9c-1.9-1.6-4.2,0.1-6.2-0.8c-0.2-0.1-0.6,0.4-0.8,0.3c-2.8-1.8-6.5-1.3-9.2-3.4
				c-1.9-1.5-3.3-3.2-4.4-5.4c-1.3-2.8-0.9-5.4-0.1-8.1c0.6-2,1.9-3.5,3.3-4.8c2.5-2.4,5.2-4.7,8.1-6.7c3.8-2.7,8.2-3.1,12.5-2
				c2,0.5,3.9,2.1,5.6,3.5c0.6,0.5,0.7,1.7,1.1,2.7c-1.2,0.7-1.7,2.4-1,2.9c0.8,0.6,0.4,1.8,1.7,1.9c-0.7,0.4-1.1,0.8-1.6,0.9
				c-1.7,0.1-3.3,0.3-5,0.2c-1.4-0.1-2.8-0.7-4.1-1c-0.5-0.1-1.2,0.1-1.6,0.4c-2.1,1.8-4.2,3.6-6.2,5.5c-0.4,0.3-0.5,0.9-0.8,1.5
				c1.7,0.6,3.3,1,4.8,0.6c3-0.8,5.7,0.4,8.3,1.4c2.6,1,5,2.3,6.8,4.5c0.8,0.9,1.5,1.9,2.3,2.8c-0.3,0.4-0.6,0.7-0.9,1.2
				c0.6,0.2,1,0.3,1.5,0.5c-0.1,0.7-0.2,1.4-0.2,2.1c-0.1,0.8,0.9,0.6,0.9,0.7c0.2,0.7,0.1,1.4,0.1,2.1c0,0.6,0,1.2,0.1,1.9
				c0,0.7,0.1,1.4,0.2,2.2c-0.3,0-0.6-0.1-0.9-0.1c0,0.8,0,1.6,0,2.4c-0.1,1.5-0.6,2.8-2.1,3.5c-0.5,0.3-0.9,0.7-1.4,1
				c-0.7,0.4-1.6,1.2-2,1c-1.1-0.6-0.8,0.8-1.6,0.8c-0.7,0-1.4,0.4-2.2,0.6c-0.3,0.1-0.6,0-0.8,0.2c-2.1,2-4.8,1.4-7.3,1.8
				c-2.3,0.5-4.7,0.4-7,0.5c-1.1,0-2.3-0.2-3.4-0.4c-1.8-0.2-3.5,0.3-5.3-0.3c-1.2-0.4-1.9-1.4-3.1-1.7
				C474.9,441.2,474.1,441.1,473,440.8z"/>
			<path d="M496.2,287.1c0.5,0.7,0.9,1.2,1.5,2c0.7-2.2,2.3-0.5,3.5-1.5c0.7-0.6,2.3-0.1,3.6-0.1c-0.2,0.5-0.4,0.9-0.6,1.4
				c1.3,0.2,2.7,0,2.4,1.9c0,0.2,0.4,0.4,0.6,0.6c1.1,1.1-0.2,1-0.7,1.3c0.2,0.4,0.4,0.8,0.6,1.4c1.4-0.4,2.2-1.5,3-2.5
				c0.9-1,1.7-2.1,2.6-3.3c0.9,0.5,1.6,2.6,2.9,0.6c0.2,0.4,0.4,0.7,0.7,1.1c1-1.6,2.1-1.4,3.3-0.2c0.3-0.3,0.6-0.6,0.9-1
				c0.3,0.6,0.5,1.2,0.9,1.6c0.8,0.6,1.9,1.1,0.9,2.4c1.4,0.8,0.7,2,0.4,2.9c-0.4,1-1.1,1.9-1.8,2.7c-2.5,3.2-5.1,6.3-7.6,9.5
				c-1.6,2-1.5,2.1,0.3,4c2.5,2.6,4.8,5.3,7.4,7.8c1.4,1.3,3.2,2.3,5,3.2c1.8,0.8,3.5,1.8,4.9,3.2c0.4,0.4,0.9,0.5,0.5,1.2
				c-0.1,0.1,0.8,0.8,1.2,1.1c-0.9,0.8-1.6,1.4-2.5,2.2c0.4,0.3,0.7,0.5,1.1,0.8c-0.3,0.3-0.6,0.5-1,0.8c0.7,0.2,1.3,0.5,2,0.7
				c-1.3,0.6-2.6,0.7-3.7,1.5c-0.7,0.5-2.5,0.5-3.1-0.1c-0.7-0.7-1.5,0-2.1-0.6c-0.7-0.6-1.7-0.8-2.6-1.2c-3.8-1.8-7.3-4-9.8-7.3
				c-0.2-0.3-0.6-0.4-1.2-0.9c0.2,2.3-0.9,4.1,0,6.2c0.5,1.1,0.7,2.8,0.2,3.6c-1.1,1.8-0.5,4.2-2.3,5.6c-1.2-1.1-2.7-0.3-4-0.4
				c-0.8-0.1-1.8-0.3-2-0.6c-0.7-1-1.2-0.2-1.7,0.1c-1-1.6-1.9-3-2.7-4.4c-0.2-0.5-0.3-1.1-0.2-1.6c0.1-3.6,0.2-7.1,0.2-10.7
				c0-1.4-0.2-2.8-0.2-4.2c0-2.9,0.2-5.8,0.1-8.7c0-2.4-0.3-4.8-0.4-7.1c-0.1-2-0.3-3.9-0.5-5.9c-0.1-1-0.3-2.1-0.7-3
				c-0.8-1.9-0.1-3.6,0.2-5.4C495.4,287.7,495.8,287.5,496.2,287.1z"/>
			<path d="M369.9,476.8c3.6,2.3,7,4.6,10.5,6.8c1.7,1,3.6,1.7,5.2,2.8c1.5,1,2.8,2.3,4.3,3.4c-2.2,2.2,0.9,2.8,0.8,4.3
				c-0.3,0.5-0.6,1.1-1.1,2c-0.7-0.7-1.3-1.3-1.8-1.8c-1.3,1.6-3.2,1.8-5,2.1c-0.3,0-0.7-0.1-0.9-0.3c-0.9-1.3-2.5-1.3-3.5-2.5
				c-0.9-1-2.5-1.3-3.7-2c-2.5-1.5-4.9-3-7.3-4.5c-1.4-0.9-2.9-1.7-4.3-2.6c-2.7,2.8-5.3,5.6-8,8.3c-2,2-4.3,3.7-5.7,6.3
				c-1.4,0.4-2.8,1.1-4.3,1.3c-1.3,0.2-2.7,0-3.9-0.3c-0.7-0.2-1.4-0.7-1.9-1.2c-0.8-0.7-1.4-1.5-2.2-2.4c0.3-1.5,1-2.7,2.2-3.7
				c4.3-3.5,7.7-7.8,11.7-11.6c0.6-0.6,1-1.3,1.6-2.1c-1.1-0.8-2.2-1.6-3.3-2.3c-2.9-1.8-5.8-3.5-8.8-5.2c-0.4-0.2-0.8-0.5-1.3-0.7
				c-2.1-0.7-3.9-1.9-5.6-3.2c-1.3-1-2.2-2.4-3.3-3.6c0.5-3,0.5-3.1,2.4-2.2c0.6-0.4,0.5-1.9,1.9-1c0.1,0.1,0.6-0.2,0.7-0.4
				c1-1.4,2.2-1.4,3.6-0.7c2.5,1.3,5,2.5,7.4,3.9c4.3,2.5,8.6,5.2,12.9,7.9c4.3-4.2,7.6-8.9,9.9-14.6c0.6,0.2,1.2,0.4,1.8,0.6
				c0.4-0.4,0.9-0.8,1.4-1.2c1.6-1.2,5-0.8,5.8,1c0.6,1.2,1.5,2.4,1.5,3.7c0,1.3-0.8,2.7-1.4,3.9
				C376.1,469.2,373.1,473.1,369.9,476.8z"/>
			<path d="M469.7,307.5c0.3,0.4,0.5,0.7,0.8,1.1c0.6-0.2,1.3-0.3,1.8-0.7c0.5-0.3,0.9-0.8,1.4-1.3c0.9,0.6,2.7,0.1,3,2
				c0,0.2,1.3,0.2,2.3,0.4c-0.7,0.5-1.1,0.7-1.5,1c1.1,0.3,2,0.6,2.9,0.9c0,0.9-0.1,1.7,0,2.4c0.1,1,0.3,1.9-0.1,3
				c-0.3,0.9,0.2,2.1,0.5,3.2c0.6,1.8,0.8,3.6,0.5,5.5c0,0.2-0.2,0.3-0.2,0.4c0.2,2.7,0.4,5.4,0.6,8.5c0,0-0.4,0.3-0.5,0.7
				c-0.1,0.4,0.1,0.8,0.1,1.2c0.5-0.2,0.7-0.1,0.6,0.5c-0.1,0.8-0.9,1.5,0,2.5c0.4,0.5,0.1,1.7,0,2.5c-0.1,0.8-0.1,1.6-0.3,2.3
				c-1,2.9-1.3,3.3-0.7,6.9c0.3,1.6,0.1,3.2,0,4.8c0,1.3-0.3,2.6-0.2,3.8c0.2,2.3-0.1,4.6-0.1,6.9c0.1,4.1-0.1,8.3-1.9,12.2
				c-0.5,1.1-0.7,2.3-1.2,3.3c-2.1,4.3-6.2,5.4-10.4,6.2c-2.3,0.4-4.6,0.3-6.9-0.1c-0.7-0.1-2,0.5-2.2,0.2c-1.3-1.7-3.7-1.1-4.9-2.6
				c-1.1-1.4-2.1-3-3.3-4.4c-1-1.1-0.4-2,0.1-2.9c0.5-0.9,1-0.7,2-0.4c1,0.3,2.4-0.5,3.5-1.1c1.6-0.8,1.6-0.9,3.3-0.2
				c2.2,0.9,4.4,0.5,6.5,0.1c0.4-0.1,0.9-0.7,1.1-1.1c1.6-3.9,2.4-8,2.3-12.3c0-3-0.3-6,0.6-9c0.1-0.3,0-0.6-0.1-0.9
				c-0.5-2.1-0.5-4.3-0.2-6.5c0.3-2.4,0.2-4.9,0.1-7.4c0-2.4-0.2-4.9-0.4-7.3c-0.1-2.6-0.2-5.2-0.3-7.8c-0.2-3.7-0.6-7.4-0.6-11.2
				C467.9,310.9,467.8,308.9,469.7,307.5z M475.1,380.9c0,0.1,0.1,0.3,0.1,0.4c0.3-0.1,0.7-0.2,1-0.3c0,0,0-0.3,0-0.4
				C475.8,380.6,475.4,380.8,475.1,380.9z"/>
			<path d="M209.9,405.3c0.4,0.7,0.7,1.3,1,1.8c2.3-1.8,4.9-2.1,7.6-2c-0.1,0.3-0.2,0.6-0.3,0.9c1.7,0.6,1.7,0.6,3.9,5.9
				c2.1-0.8,4.3-1.6,6.3-2.5c2-0.9,4.1-1.3,6.2-1.4c4.2-0.3,7.7,1,10.5,4.4c2.5,3.1,3.8,6.7,5.1,10.3c0.9,2.7,1.7,5.4,2.7,8.1
				c0.2,0.7,0.6,1.5,1.1,1.8c2,1,3.1,2.6,3.6,4.5c-0.4,0.3-0.8,0.7-1.1,1c-0.3,0.4-0.1,0.6,0.1,1c0.5,0.8,0.3,2,0.3,3
				c0,0.2-0.8,0.7-0.9,0.6c-0.9-0.8-1.5,0.5-2.3,0.4c-0.4,0-0.9,0.4-1.4,0.4c-0.3,0-0.6-0.2-0.9-0.2c-4.7,0.4-6.8-2.8-8.7-6.3
				c-0.9-1.7-1.8-3.4-2.5-5.2c-0.3-0.9-1.3-1.8-0.6-2.9c0.1-0.1-0.1-0.6-0.2-0.6c-1.3-0.5-0.9-1.8-1.2-2.7c-0.6-1.7-1.1-3.4-1.7-5.4
				c-0.1,0-0.4-0.2-0.6-0.2c-0.8-0.1-1.3-1.4-2.3-0.6c-0.9,0.7-2.1,1.2-2.8,2.1c-0.7,0.9-1,2.1-1.3,3.3c-1,3.8-1.9,7.7-3,11.5
				c-0.6,2.1-1.4,4.1-2.3,6.1c-0.7,0.4-1.9-1.2-2,0.6c-1.6,0-3.2,0.3-4.7-0.1c-1.3-0.4-2.6-1-3.5-2.5c-1.4-2.4-2.4-4.6-2.2-7.5
				c0.2-3.1-0.5-6.3-0.3-9.5c0.2-3.1-1.1-6-1.2-9c-0.1-1.3-1-2.6-1.4-4C208.4,408.8,208.7,407.1,209.9,405.3z"/>
			<path d="M111.6,458.5c0.4-2.6,0.8-5,1-7.4c0.2-1.9,1-3.5,1.8-5.2c1.5,1.2,3,1.2,4.3,0.3c0.4-0.3,1-0.3,1.5-0.3
				c0.4,0,0.8,0.1,1.4,0.3c0.2,0.6,0.6,1.4,0.9,2.2c0.2,0.6,0.3,1.5,1.4,1c0.1,0.2,0.2,0.4,0.3,0.7c0.1,0.4,0.1,0.8,0.3,1.1
				c0.5,0.7,1.2,1.4,0.2,2.2c1,0.7,0.4,1.4,0,2.1c-0.4,0.6-0.2,1.3,0.1,2c0.1,0.2-0.2,0.6-0.3,1.1c0.4,0.5,1.1,0.8,2,0.7
				c0.8-0.1,1.6,0.2,2.4,0.2c2.4-0.1,4,1.4,5.7,2.6c-1.6,1,0.1,3.1-1.9,4.4c1.2,0.2,1.9,0.4,2.7,0.6c0.6,1.2,0.8,2.4-0.6,3.4
				c-0.3-0.3-0.5-0.6-0.8-0.9c-0.9,1-1.7,1.6-3.2,1.4c-1.3-0.2-3,0.7-3.8,0.2c-1.2-0.7-2.6,1.5-3.1-1.3c-0.1,0.2-0.3,0.4-0.4,0.6
				c-0.2,0.7-0.6,1.4-0.7,2.1c-0.2,2-0.6,4.1-0.5,6.1c0.1,1.3-0.5,2.3-0.3,3.7c0.2,1.1,0.6,2.5,0.2,3.6c-0.3,1-0.4,1.6,0.3,2.3
				c-1,0.9-0.3,2-0.3,3.1c0,0.8-0.1,1.6-0.5,2.3c-0.4,0.7,1.1,1.3-0.1,1.8c-0.1,0,0,0.6,0.2,0.8c0.9,0.9-0.4,2.1,0.4,3.1
				c0,0-0.5,0.5-0.8,0.8c0.3,0.3,0.5,0.7,0.9,1.1c-0.5,0.5-0.9,0.9-1.4,1.3c0.9,2.3,0.9,2.3-0.9,4.3c-0.2-0.1-0.4-0.2-0.5-0.4
				c-0.1-0.2-0.2-0.4-0.3-0.7c-0.3,0.2-0.8,0.3-0.9,0.6c-0.6,1.3-1.8,1.1-2.8,1c-0.8,0-1.7-0.2-2.5-0.4c-1.7-0.4-1.9-2.2-3-3.2
				c-0.5-0.5-0.7-1.3-1.1-2c0.6-2.2,0.9-4.5,0.7-6.9c-0.2-2.4-0.2-4.8-0.1-7.3c0.1-3.1,0.1-6.2,0.2-9.3c0.1-1.9,0.1-3.8,0.4-5.6
				c0.2-1.8,0-2.1-1.9-2c-2.5,0.2-5,0.5-7.4,0.3c-2.7-0.1-4.5-1.7-5.5-4.2c-0.2-0.4-0.2-1.1-0.5-1.3c-1.8-1.4-0.1-2.6,0.1-3.9
				c0.1-0.6,2.7-1.5,3.5-1.4c0.4,0.1,1,0.2,1.2,0c1.1-1.1,2.4-1.2,3.8-1.3c2-0.1,4,0,5.9,0C109.9,458.7,110.7,458.6,111.6,458.5z"/>
			<path d="M419.9,524.7c-0.3-0.9-0.5-1.5-0.7-2c-0.9,0.1-1.8,0.3-2.8,0.4c0,0.2-0.1,0.6-0.1,0.7c-1.4-0.2-2.8-0.4-4.4-0.6
				c-0.4-0.6-0.7-1.5-1.3-2.1c-1.1-1-1.2-2.3-0.9-3.5c0.6-2.3,1.3-4.6,2.8-6.6c2.6-3.5,3.8-7.7,5.2-11.8c0.7-2,1.1-4.2,1.7-6.2
				c0.9-2.7,1.8-5.3,2.8-7.9c0.7-1.8,0.7-3.1-0.8-4.7c-3.1-3.1-5.9-6.6-8.9-9.9c-1.4-1.6-3.1-2.9-4.7-4.4c-0.8-0.8-1-3.6-0.4-4.4
				c0.2-0.2,0.6-0.4,0.8-0.4c1.7,0.4,2.9-0.8,4.2-1.3c2.2-0.8,4.3-0.3,5.9,1.5c2.5,2.9,5.1,5.7,7.6,8.6c0.1,0.2,0.4,0.2,0.8,0.4
				c0.8-2.3,1.5-4.5,2.4-6.8c0.6-1.7,1.4-3.4,2.1-5.1c0.4-0.9,0.8-1.8,2.1-1.4c0.3,0.1,0.7,0,0.9-0.2c1.1-1,2.4-0.7,3.6-0.5
				c1.2,0.2,2.2,1,2.5,2.4c0.1,0.2,0.3,0.4,0.5,0.7c-0.5,0.2-0.7,0.3-1.1,0.5c0.9,0.5,1.6,1,2.6,1.5c-0.1,0.6-0.2,1.3-0.4,1.8
				c-1.3,3.2-2.9,6.4-3.7,9.7c-0.8,3-1.7,6-2.9,8.8c0,0.1-0.1,0.2-0.1,0.2c0.8,2.8-1.4,4.6-2.1,7c-1.6,5.2-3.4,10.4-5,15.6
				c-1.2,3.7-2.7,7.2-4.8,10.5C421.7,518.2,421.1,521.3,419.9,524.7z"/>
			<path d="M428.8,333.2c-0.3,0.1-0.7,0.3-1.1,0.5c0.2,0.7,0.5,1.5,0.5,2.2c0,0.7-0.4,1.4-0.6,2.5c-0.6-0.2-1.3-0.4-2.1-0.7
				c-0.1,0.2-0.2,0.6-0.2,0.8c-1.2-0.3-2.5-0.7-3.7-0.9c-0.6-0.1-1,0-1.4-0.5c-0.3,0.5-0.7,0.9-1.2,1.6c-1.3-2.3-2.7-4.3-2.9-6.9
				c-0.1-1-1-2-1.3-3c-0.7-2.1-0.6-2.1-2.3-3c-3.5,2-5.9,4.9-7.5,8.6c-0.6,1.4-1.2,2.9-1.8,4.2c-1.3-0.1-2.4-0.3-3.5,0.1
				c-1.6,0.6-3-1.1-4.7-0.5c-0.1,0-0.1-0.1-0.2-0.1c-1-0.6-3.2-5.2-3-6.4c0.1-0.5,0.3-1,0.2-1.4c-1.7-6.7-0.5-13.3-0.1-20
				c0.3-4.3,0.9-8.5,1-12.8c0.1-1.9-0.5-3.9,0.3-5.8c0.3-0.7,0.6-1.5,0.9-2.3c1.2,0.9,2.1,0.8,3.1,0.4c1.1-0.4,2.1-2,3.6-0.8
				c0.1,0.1,0.7-0.2,1-0.3c0.1,0.5,0.3,0.9,0.3,1.1c0.7,0,1.4,0,1.9,0c0.3,0.9,0.4,1.9,0.9,2.5c0.7,0.8-0.5,1.1-0.2,1.6
				c0.3,0.6,0.9,1.1,1,1.7c0.1,0.6-0.1,1.2-0.4,1.8c-0.2,0.6-0.6,1.1-0.9,1.7c0.3,0.4,0.9,0.9,1,1.4c0.1,0.4-0.4,1-0.6,1.5
				c-0.1,0.2-0.3,0.4-0.2,0.5c0.9,1.2,0.1,2.5,0.3,3.7c0.2,1.4,0,2.7-0.2,4c-0.2,1.5-0.5,3-0.6,4.5c0,0.4,0.2,0.9,0.4,1.5
				c1.3-0.6,2.5-1.1,3.8-1.6c2.6-1,5.2-1.4,7.9-0.8c2.6,0.6,4.5,2.2,6.1,4.1c1.2,1.4,2,3.3,2.8,5.1c1,2,1.9,4.1,2.7,6.2
				C428.2,330.3,428.5,331.7,428.8,333.2z"/>
			<path d="M288.1,342.4c-0.6,0.4-1.1,0.8-1.9,1.2c0.4,0.4,0.8,0.7,1.1,1c-0.4,0.2-0.7,0.5-1.1,0.7c0.1,0.2,0.2,0.4,0.3,0.4
				c0.4,0.2,0.9,0.3,1.3,0.5c0.7,0.5,0.7,1.3-0.1,1.6c-2.6,1-5.1,2.7-8.1,2.3c-0.6-0.1-1.3,0-1.8,0.2c-2.8,1.2-5.5,0.2-8.3,0.1
				c-1.4-0.1-2.7-0.9-4-1.3c-0.8-0.3-1.7-0.3-2.6-0.5c-0.1,0-0.4,0.1-0.4,0.1c-0.9-1.7-2.9-1.6-4.3-2.5c-2.9-1.9-4.5-4.8-6.2-7.6
				c-0.8-1.5-0.8-3.5-1-5.3c-0.1-1.2-0.1-2.5,0-3.8c0.3-3.7,1.7-6.9,4.4-9.5c3.3-3.3,7.1-6,11.8-6.9c2.2-0.4,4.4-0.9,6.8-0.1
				c1.5,0.5,3.1,0.7,4.6,1.6c1.3,0.8,2.5,1.6,3.3,3c0.3,0.5,0.9,1.2,0.8,1.6c-0.3,1,0.6,1.3,1.1,1.9c-0.6,0.2-1,0.3-1.6,0.4
				c0.6,0.6,1.1,1,1.5,1.3c-0.2,1-0.5,1.9-0.4,2.6c0.2,1.7-0.2,3.3-0.6,4.8c-0.5,1.9-1.2,3.5-3.6,3.7c-0.6,0.1-1.3,0.6-1.8,1.1
				c-1.2,1.1-2.7,1.1-4.2,1.3c-1.7,0.2-3.4,0.4-5.2,0.5c-0.5,0-1-0.1-1.5-0.2c-0.6,0.8-0.1,1.2,0.5,1.5c1.9,1,4,1.1,6.1,1.1
				c3,0,6,0.1,9-0.7c0.6-0.2,1.5,0.6,2.2,0.4c1-0.2,1.5,0,1.8,0.9c0.2,0.8,1.5-0.5,1.5,0.9C287.4,341.3,287.8,341.9,288.1,342.4z
				 M269.3,325.2c0.9,0.1,1.8,0.3,1.4-1.2C270.2,324.4,269.8,324.7,269.3,325.2z"/>
			<path d="M246.1,343.6c-0.2-0.2-0.4-0.5-0.5-0.7c-2,1.5-3.9,3.2-6,4.4c-1.7,1-3.6,1.6-5.5,2.2c-3.3,1.1-6.9,1.3-10.3,1.2
				c-2.1-0.1-4.4-0.9-6.2-2c-2.5-1.4-4-3.8-4.2-6.8c-0.3-4.1-0.4-8.1,1.6-11.8c1.1-2,2.4-3.7,4.2-5.1c2.8-2.2,5.9-3.7,9.3-4.6
				c1.4-0.4,3-0.3,4.5-0.4c0.9,0,1.7,0,2.9,0c0-2.5,0.1-4.7,0.1-7c0-2-0.1-4,0-6c0-1.2,0.5-2.3,1.6-3.2c1.1,1.3,2.3,1.2,3.8,0.6
				c2.7-1.1,4.9-0.1,5.6,3.3c0,0.2,0,0.5,0,0.7c-0.3,3.5,0.2,7.1-0.1,10.6c-0.2,3.1,0,6.2,0,9.3c0,2.7,0.4,5.3,0.4,8
				c0,2.3-0.3,4.7-0.5,7C246.5,343.5,246.3,343.5,246.1,343.6z M235.9,330.2c-6.9-1.8-12.1,2.9-11.7,10.6c3.5,0.5,6.8-0.6,9.8-2.2
				c0.9-0.5,2-1.7,2.1-2.6C236.4,334.1,236,332.2,235.9,330.2z"/>
			<path d="M172.2,489.3c-0.3,0.1-0.5,0.1-0.6,0.2c-2.4,2.7-5.6,2.9-8.9,3c-3.9,0.2-7.6-1.3-11.3-2.2c-0.9-0.2-1.8-1.1-2.4-1.8
				c-2.9-3.2-4.3-6.9-4.1-11.3c0.2-4.6,0.9-9.2,1.8-13.7c0.4-2,0.4-4.3,2.1-6c0.7,0.1,1.4,0.2,2.1,0.4c0.6,0.2,1.4-1.2,1.8,0.2
				c0.6-0.4,1.2-0.7,1.8-1.1c2.9,0.6,3.6,2.9,4.2,5.2c0.1,0.3,0,0.6,0,0.9c-0.7,3.6-1.5,7.3-2.2,10.9c-0.1,0.5,0,1.1,0,1.6
				c0,0.5,0,1.2-0.2,1.5c-0.5,0.6-0.4,0.8,0.1,1.3c0.3,0.4,0.3,1.2,0.3,1.8c0.2,1.8,0.6,2.2,2.3,2.4c3.4,0.4,3.2,0.3,4.9-2.6
				c3.1-5,3.1-10.5,3.3-16.1c0.1-1.9,0.6-3.8,1-5.6c0.1-0.3,0.9-0.8,1.3-0.7c1.3,0.3,2.2-0.3,3.4-0.9c1.1-0.5,2.7,0.1,4,0.5
				c0.7,0.2,1.3,1,1.7,1.7c0.9,1.5,1.2,3.1,1.2,4.8c0,2-0.1,4.1,0,6.1c0.1,1.8,0.3,3.6,0.5,5.4c0.2,1.5,0.8,3,0.8,4.4
				c0,1.5,0.4,2.9,0.5,4.3c0.2,1.8-0.3,3.6,0.1,5.4c0.1,0.4-0.4,1.3-0.6,1.3c-1.7,0-3.3,1.9-5.1,0.3c-0.2-0.1-0.5-0.2-0.7-0.2
				C173.8,491.2,172.9,490.3,172.2,489.3z"/>
			<path d="M208,456.6c0.5,0.8,1.1,1.4,2,1.8c1.7,0.7,2.3,2.4,2.8,4.1c1.7,6.2,3.8,12.3,6.4,18.2c0.2,0.5,0.6,0.9,1.1,1.6
				c0.6-1.6,1.1-2.8,1.5-4.1c1.2-3.6,2.4-7.3,3.3-11c0.6-2.3,0.6-4.7,0.8-7.1c0.1-2,1.2-3.6,2.2-5.2c0.1-0.1,0.2-0.3,0.3-0.3
				c1.7-0.5,3.3-1.3,5-1.3c2.4,0.1,4.5,1.3,5.1,3.9c0.3,1.4,0.2,3-0.3,4.4c-0.6,1.5-1.5,2.8-1.2,4.5c0.1,0.5-0.9,1.1-0.3,1.9
				c0.4,0.6-1.5,0.1-0.7,1.2c0.3,0.5,0,1.3-0.1,2c-0.1,0.7-0.2,1.4-0.4,2.1c-0.8,2.7-1.7,5.4-2.6,8.1c-1.5,4.4-2.9,8.7-4.5,13
				c-0.6,1.8-1.1,3.6-2.4,5.1c-0.6,0.6-1.1,0.8-1.8,0.8c-1-0.1-2-0.4-2.9,0.3c-0.1,0.1-0.5-0.1-0.8-0.3c-0.4-0.2-0.8-0.7-1.2-0.6
				c-1.5,0.4-2.1-0.5-2.9-1.5c-1.5-2-2.6-4.1-3.5-6.4c-0.9-2.2-2.2-4.2-3.3-6.3c-1.4-2.9-2.7-5.9-3.6-9.1c-0.3-1-1-2-1.4-3
				c-0.5-1.4-0.9-2.8-1.4-4.3c-0.7-2.1-1.5-4.1-2.1-6.2c-0.4-1.3-0.6-2.7,0.1-3.9c0.2-0.3,0.5-0.6,0.7-0.9c0.1-0.1,4.3-0.3,4.4-0.2
				C207.6,458.3,207.3,457.1,208,456.6z"/>
			<path d="M134.5,297c2,1.5,3.6-0.1,5.3-0.8c0.5,0.7,0.4,2.2,1.9,1.4c0.2-0.1,0.7,0.1,0.8,0.3c0.8,1.8,2.3,3.3,1.4,5.6
				c-0.4,1,0,2.3,0.1,3.5c0,0.9,0.2,1.9-0.2,2.5c-0.7,1.1,0.1,1.9,0,2.9c-0.1,0.8,0.8,0.9,1.6,0.8c1.5-0.2,3.1-0.4,4.6-0.6
				c3-0.3,4.9,1.2,6.8,2.9c3.3,2.9,4.9,6.6,4.4,11.1c-0.2,1.8-0.3,3.5-0.5,5.3c-0.2,1.6-1,2.7-2.1,3.6c-5.2,4.4-11.1,7.4-18.2,6.9
				c-1.8-0.1-3.7-0.1-5.4-0.5c-1-0.3-1.9-1.2-2.6-2.1c-0.8-1-1.2-2.2-1.8-3.3c-0.7-1.2,0.2-2.4,0.8-3.1c2.2-2.4,1.7-5.2,1.8-7.9
				c0.2-6,0.2-12.1,0.3-18.1c0-2.1-0.2-4.3-0.3-6.4C133.1,299.5,133.3,298.2,134.5,297z M144.3,331.6c0.2,0.2,0.3,0.3,0.5,0.5
				c1.7-1,3.4-2,5.1-3c0.3-0.2,0.7-0.6,0.7-0.9c0-1.9,0.8-4-1.2-5.5C145.6,324.6,145.6,328.5,144.3,331.6z"/>
			<path d="M117,341.3c-0.3,0.1-0.8,0.3-1.3,0.5c0.2,0.4,0.3,0.7,0.5,1.1c-1.5,1-1.4-0.6-2-1.2c-1,0.3-2.1,0.6-3.2,1
				c-1.4,0.5-2.4,0.4-2.9-1.2c-0.1-0.4-0.6-0.7-0.9-1.1c-0.8-1.3-1-1.3-2.4-0.7c-2,0.9-4,1.8-6.1,2.4c-3,0.9-6.1,0.5-9.2,0.4
				c-0.6,0-1.2-0.2-1.9-0.2c-0.1-0.5-0.3-1-0.4-1.7c-0.3,0.3-0.6,0.5-1,0.7c-3.7-1.3-5.3-4.6-6.8-7.9c-0.4-0.9-0.3-2-0.2-3
				c0.3-3.4,0.8-6.8,3.3-9.5c0.5-0.5,0.9-1.1,1.6-1.5c3.2-1.8,6.4-3.6,9.7-5.1c2.9-1.3,6-1.4,9.1-1.3c0.9,0,1.9,0,2.8,0.2
				c2.8,0.5,5.6,0.9,8.4,1.7c1.1,0.3,1.8,1.6,2.7,2.5c1.6,1.5,1.2,3.5,1.1,5.2c-0.2,5.1-0.6,10.3-1,15.4c0,0.5-0.4,1.1-0.4,1.6
				C116.6,340,116.8,340.5,117,341.3z M105.7,323.3c-0.8-0.1-1.6-0.1-2.1-0.4c-0.7-0.5-1.2-0.5-1.9-0.1c-0.4,0.2-0.9,0.2-1.3,0.4
				c-1.5,0.4-3.1,0.6-4.4,1.2c-1.4,0.6-2.6,1.7-4,2.5c-1.7,1.1-1.8,2.8-2,4.6c0,0.3,0.4,1,0.8,1c1.9,0.4,3.8,1,5.6,0
				c2.2-1.2,4.4-2.5,6.6-3.8C104.9,327.4,106,325.7,105.7,323.3z"/>
			<path d="M463.6,394.5c-0.3,1.5-0.6,2.9-0.8,4.3c1.2,0.7,0.8-0.8,1.5-0.9c1.1,1,0.6,2.2,0.5,3.4c-4.3,1.1-7.4,3.9-10.4,7
				c-1,1.1-2.3,2-3.4,3c-0.7,0.6-1.1,1.5-1.8,2.2c-1.1,1.2-1.1,2.5-0.5,4c0.2,0.4,0.4,0.9,0.3,1.1c-0.9,1.6,0,3.1,0.4,4.5
				c0.4,1.3,0.5,2.6,0.2,3.9c-0.1,0.5-0.1,1.1-0.1,1.6c0.1,1.9,0.4,3.9,0.3,5.8c-0.1,1.6-0.6,3.1-1,4.6c-0.2,0.8-0.8,1.4-1.9,1.5
				c-1.5,0-3.1,0.2-4.6,0.6c-1.5,0.4-2.5-0.2-3.4-1.3c-2.1-2.7-3.1-5.8-3.4-9.2c-0.3-3-0.5-6-0.8-9.1c0-0.5,0.1-0.9,0.2-1.4
				c0.2-3.3-0.2-6.4-1.3-9.5c-0.6-1.8-1-3.8-1.3-5.7c-0.3-2.4-0.3-4.8-0.3-7.3c0-0.8,0.4-1.9,0.9-2.3c0.7-0.4,1.8-0.3,2.7-0.2
				c0.6,0,1.2,0.4,1.8,0.4c0.5,0,1.1-0.1,1.6-0.2c-0.1-0.2-0.1-0.5-0.2-0.9c1.7,0.5,2.4,1.6,3.1,2.8c0.5-0.1,0.9-0.2,1.3-0.2
				c0.1,1.1,0.3,2.2,0.4,3.4c1.4-0.3,2.2-1.3,3.1-2.1c3.1-2.8,6.5-5,10.5-6.2c1.1-0.3,1.8-0.2,2.7,0.3
				C461.1,392.9,462.2,393.6,463.6,394.5z"/>
			<path d="M333.1,330.3c0.3,0.1,0.9,0.1,1,0.3c0.1,0.4,0.2,1.1,0,1.3c-0.5,0.6-1.1,1.1-1.7,1.5c-2.2,1.2-4.6,1.9-7.1,2.1
				c-1.2,0.1-2.5,0.4-4,0.6c-0.1,2-0.4,3.8-0.2,5.6c0.3,2.4-0.1,4.5-1.2,6.5c-0.8,1.5-2.3,1.2-3.5,1.4c-0.9,0.1-1.9-0.3-2.8-0.6
				c-0.6-0.2-1-1-1.9-0.5c-0.2,0.1-0.9-0.1-1-0.4c-0.8-1.4-2.1-2.8-2.3-4.3c-0.3-2.6-0.8-5.3-0.3-8c0.3-1.5-0.3-3.2-0.6-4.8
				c-0.1-0.7-0.5-1.2,0.4-1.6c0.1-0.1,0.3-0.3,0.2-0.3c-1.4-2,0.8-3.6,0.5-5.6c-0.3-1.8,0.4-3.6-0.3-5.5c-0.3-0.8,0.1-1.9,0.2-2.9
				c0-0.3,0.1-0.6,0-0.9c-0.8-2.9,0.2-4.7,2.9-6c3.5-1.7,7.1-2.4,10.9-2.7c0.7-0.1,1.4-0.3,2.1-0.5c0.9-0.2,1.6-0.1,2,1
				c0.5-0.3,1-0.6,1.8-1.1c-0.2,0.7-0.3,1-0.5,1.5c1.1-0.1,2.7-0.8,2,1.4c0.4,0.1,0.9,0.2,1.2,0.3c-0.2,0.6-0.6,1.4-0.4,1.5
				c1.1,0.9-0.4,1.2-0.4,1.9c1.2,1.1,2-0.4,3.1-0.4c0.2,1.8-1.1,2.8-2.3,3.5c-2.3,1.3-4.8,2.3-7.5,2.2c-0.7,0-1.5,0.3-2.1,0.5
				c0.2,2.6,0.4,5,0.6,7.5c1.4-0.3,2.6-0.5,3.8-0.8c0.7-0.2,1.5-0.5,2.1,0.3c0.1,0.1,0.4,0.2,0.6,0.2c2.2,0,2.2,0,3.2,2.1
				c0.1,0.3,0.7,0.3,0.9,0.6C333.2,328.1,333.3,329.2,333.1,330.3c-0.5-0.1-1-0.2-1.6-0.3C332,330.9,332.5,331.3,333.1,330.3z"/>
			<path d="M114.8,378.2c0.6,0.3,0.8-1.2,1.7,0c0.5,0.6,1,0.1,1.1-1.7c1.1,0.2,2.3,0.4,3.4,0.6c0,0.1-0.1,0.4-0.1,0.9
				c0.5-0.2,1-0.3,1.7-0.5c0.2,0.5,0.4,1,0.5,1.5c0.2,1,0,2,1.1,2.7c0.3,0.2,0.3,0.8,0.3,1.3c0,0.8-0.3,1.7-0.1,2.5
				c0.8,3.3,0.9,6.7,0.5,9.9c-0.3,2,0.8,4-0.3,5.9c0.9,1.2,0.4,2.6,0.6,3.9c0.2,1.6,0.5,3.1-0.4,4.6c-0.1,0.2-0.1,0.6-0.1,0.7
				c1.4,0.5-0.1,1.7,0.6,2.5c0.6,0.7-0.5,1.9,0.5,2.7c-1.6,1.1,0.9,2.8-0.6,4c-0.3,0.3,1.2,1.3,0.2,2.2c1,1.1,0.1,2.4,0.5,3.7
				c0.9,2.6-0.1,5.5,1.4,8c-0.8,1.4,0,3.1-0.8,4.4c-0.4,0.7-1.3,1.5-2.1,1.6c-1.4,0.2-2.9,0-4.3-0.1c-0.7,0-1.5-0.1-2.5-0.2
				c-2.8-2.5-3.9-6.1-4.1-10.1c-0.1-3.9-0.3-7.7-0.5-11.6c-0.2-3.9-0.4-7.7-0.4-11.6c0-4.5-0.4-8.9-0.5-13.4c-0.1-2.7,0-5.4-0.1-8.1
				c0-1.1-0.2-2.2-0.2-3.3c0-1,0.3-2,0.6-2.9c0.1-0.3,0.7-0.6,1.1-0.6C113.9,377.7,114.3,378,114.8,378.2z"/>
			<path d="M198.8,323.7c-0.3,0.9-0.5,1.8-0.8,2.9c0.7,0.3,1.6,0.8,2.6,1.2c-2.1,2.9-5.2,3.3-8.3,2.5c-1.4-0.3-2.8-0.8-4,0
				c-1.2,0.8-2,2.1-3,3.2c0,0.1,0,0.2-0.1,0.2c-1.5,4.5-0.6,5,3.2,5.7c1.1,0.2,2.4,0,3.5,0.2c0.9,0.2,1.8,0.8,2.4,1.5
				c0.7,0.8,1.1,1.9,1.7,3c-0.7,0.1-1.3,0.2-1.6,0.3c0.8,1,1.6,2,2.3,3c-1.5,0.8-3.1,1.7-5.2,1.5c-0.7-0.1-1.6,0.6-2.3,0.6
				c-1.5-0.1-3.1-0.5-4.6-0.5c-0.7,0-1-0.2-1.5-0.7c-1-0.8-2-1.3-3.3-1.6c-1.8-0.4-3-2-4-3.5c-1.4-2.2-2.9-4.4-2-7.3
				c-0.6-5.2,2.5-8.9,5.5-12.5c1.6-1.9,4.2-2.4,6.4-2.8c3.5-0.6,7.2-0.6,10.5,1C197.2,322.1,197.9,322.9,198.8,323.7z"/>
			<path d="M442.8,308.8c0.6,1.5,1.3,1.8,2.5,1.1c0.9-0.6,2-1,2.9-1.4c1,0.4,2,0.7,2.9,1.1c0.3,0.1,0.8,0.4,0.9,0.7
				c0.7,1.7,1.6,3.4,1.5,5.3c0,0.3-0.1,0.7-0.2,0.9c-1.3,1.7-0.8,3.8-1.3,5.7c-0.4,1.6-0.8,3.2-1,4.8c-0.2,2.2-0.2,4.5,0.1,6.7
				c0.1,0.7,0.3,1.4-0.2,2c-0.7,0.9-1.3,1.9-2.2,2.7c-0.5,0.4-1.4,0.4-2.1,0.5c-0.6,0.1-1.4-0.4-1.8-0.1c-0.9,0.7-1.4,0.2-2-0.3
				c-0.2-0.2-0.6-0.6-0.7-0.6c-2.4,0.9-2.2-1.4-3-2.4c0,0,0-0.2,0-0.2c-2.1-1.6-1.3-3.8-1.1-5.7c0.8-5.5,1.7-10.9,2.7-16.4
				C440.8,311.6,441.4,310.2,442.8,308.8z"/>
			<path d="M333.8,600.2c-0.4,0.1-0.6,0.1-1,0.2c0.2,2,2,4.1-0.3,6.1c-0.9-0.7-1.9-0.5-2.8,0.7c-1.5-1.6-3.3-1.2-5.1-0.7
				c-1.5-2.5-3.2-4.8-4.1-7.7c-0.6-1.8-1.8-3.4-2.3-5.4c-0.2-1.1-1.2-2-1.9-3c-1.7,0.1-1.7,0.1-1.8-1.9c-1.7,0.1-3.2-0.3-3.6-2.4
				c-0.1-0.6-0.8-1.1-1.2-1.7c0.1-3.4,1.5-3.6,4.6-4.3c0.6-0.1,1.1-0.6,1.7-1c0.9-0.7,1.8-1.3,2.9-0.2c0.1,0.2,0.4,0.4,0.6,0.3
				c2.6-0.6,3.8,1.7,5.3,3c2.4,2.3,4,5.4,5.3,8.5c1.1,2.8,2.4,5.5,3.6,8.2C333.6,599.5,333.7,599.8,333.8,600.2z"/>
			<path d="M277.6,580.3c1.9,0.1,3.6,0.3,5.3,0.4c0.1-0.3,0.3-0.7,0.4-1.2c0.3,0.1,0.5,0.1,0.5,0.2c0.3,0.4-0.3,1,0.7,1.4
				c1.1,0.5,1.8,1.7,2.7,2.6c0.1-0.2,0.3-0.5,0.5-0.9c0.4,1.1,1.1,2,1.2,3c0.1,1.4-0.1,2.8-0.2,4.2c-0.1,0.6-0.4,1.2-0.4,1.9
				c-0.3,5.2-2.8,9.3-6.3,13.4c-0.1-1.1-0.2-1.9-0.2-2.7c-0.7,0.5-1.3,1-1.9,1.5c-0.6-1.5-1.9,0-2.7-0.7c-1-0.9-2-0.1-2.9,0.2
				c-0.8-1.4-1.5-2.7-2.5-4.4c0.2-0.5,0.5-1.6,1-2.5c0.8-1.6,1.6-3.1,2.5-4.6c0.7-1.3,1-2.6,0.9-4.1c-0.1-1.3,0.3-2.6,0.1-4
				C276.3,582.8,277.2,581.5,277.6,580.3z"/>
			<path d="M303.7,602c-1.2-0.1-2.4-0.2-3.5-0.4c-1.4-0.6-1.5-2.5-3-3.4c-0.3-0.2-0.3-0.9-0.3-1.3c0-2.8-0.1-5.6-0.8-8.3
				c-0.4-1.4,0.3-3,0.5-4.6c0.2,0,0.3-0.1,0.5-0.1c0.4,0.5,0.8,1,1.2,1.5c0.7-0.4,1.3-0.8,2-1.2c0.2,0.6,0.3,1,0.5,1.5
				c0.3-0.4,0.6-0.7,0.6-1c-0.1-1.3,0.3-1.7,1.6-1.2c1.2,0.4,2.5,0.5,3.6,1c0.7,0.3,1.4,1.2,1.6,2c0.5,1.7,0.5,3.4,0.9,5.1
				c0.3,1.2,0.4,2.4,0.4,3.6c0.1,1.1,0.1,2-0.4,3.2c-0.4,0.8-0.4,1.8-0.9,2.7c-0.9,1.6-1.5,1.8-3.5,0.8c0.5-0.1,0.9-0.2,1.3-0.3
				c-0.1-0.2-0.1-0.4-0.2-0.4C305.1,601.3,303.9,600.6,303.7,602z"/>
			<path d="M471.3,288.7c0,0,0.4-0.1,0.4-0.2c0.1-1.4,1.3-0.7,1.8-0.7c2.7-0.4,5.6,1.3,6.5,3.9c0.2,0.4,0,1-0.1,1.5
				c-0.1,0.8-0.4,1.5-0.4,2.3c0.1,2.3-0.6,3.2-2.7,3.7c-1.4,0.3-2.8,0.7-4.2,0.3c-1.2-0.4-2.8-0.5-3.6-1.3c-1.1-1.1-1.9-2.7-2.5-4.3
				C465.8,291.7,468.6,288.5,471.3,288.7z"/>
			<path d="M443.1,288.6c0.4-1.8,1.1-1.5,1.9-0.8c1-1.2,1-1.2,2.1-1.2c0.1-0.4,0.2-0.8,0.2-1.1c0,0,0.1-0.1,0.4-0.2
				c1.6,0.7,3.6,1.3,4.3,3.2c0.3,0.7,1.7,1.8,0,2.7c-0.1-0.1-0.4-0.3-0.8-0.5c-0.5,0.8,0.7,2.1,1.7,2.1c0.4,0,0.7-0.1,1.1,0
				c-1.1,0.9-1.7,2.2-3.3,2.9c-1.5,0.7-3.2-0.4-4.4,0.8c-0.6-0.4-1.2-1.2-1.9-1.2c-1.9-0.2-2.9-1.5-3.4-3.1c-0.3-1-1.5-1.6-1.2-3
				c0.2-0.8,0.3-1.7,1-1.9C441.8,286.9,442.6,287.3,443.1,288.6z M447.3,292.7c1.2,0.2,2.5,1.3,3.5-0.5
				C449.6,292.4,448.5,292.6,447.3,292.7z"/>
			<path d="M427.6,449.7c-1,1.1-1.6,1.9-2.4,2.8c-0.8-0.3-1.4-2.1-2.7-0.6c-0.1,0.1-0.7-0.3-1.3-0.6
				C423.1,450,425,449.4,427.6,449.7z"/>
			<path d="M528,374.9c0.6,0.2,1.2,0.3,1.7,0.4c-0.4,1,0,2.5-1.7,2.7C528,377,528,376,528,374.9z"/>
			<path d="M528.4,373.6c-0.5-1.5-0.5-1.5,0.6-2.1C528.7,372.2,528.6,372.8,528.4,373.6z"/>
			<path d="M513.7,496.4c0-0.4,0-0.7,0.1-1.7c0.6,0.8,0.9,1.2,1.2,1.6c-0.1,0.1-0.1,0.2-0.2,0.3C514.4,496.6,514,496.5,513.7,496.4
				C513.7,496.4,513.7,496.4,513.7,496.4z"/>
			<path class="st0" d="M382.4,389c-0.6,3.4-2.7,5.6-4.6,8.1C376.4,394.4,378.3,391.2,382.4,389z"/>
			<path class="st0" d="M303,554.8c0.8,0.3,1.2,0.4,1.6,0.5c0.4,0.1,1,0.4,1.3,0.2c0.8-0.5,1.6-0.3,2.5-0.2c2.8,0.4,5.6,0.5,8.5,1.2
				c-4,1.1-7.9,2.3-12.1,3.5C304.1,558.2,303.7,556.8,303,554.8z"/>
			<path class="st0" d="M285.8,561c-0.3,0.1-0.7,0.3-1,0.4c-0.3,0.1-0.6,0-0.9-0.1c-3.3-1.1-6.9,0.7-10.1-1.1
				c0.4-1.6,1.9-1.3,2.8-1.5c1.9-0.4,3.7-1.4,5.7-0.8c0.1,0,0.3,0,0.5-0.1c0.8-0.4,1.5-0.9,2.4-0.3C285.6,558,285.9,559.2,285.8,561
				z"/>
			<path class="st0" d="M360.5,325.1c-1.2,4.3-5,6.8-10.3,6.6c1.1-3.2,3.4-5.1,6.6-5.9C358,325.5,359.2,325.3,360.5,325.1z"/>
			<path class="st0" d="M336.2,383.7c2.4,0.3,4.5,0.7,6.6,0.9c1.6,0.2,2.6,1.2,3.6,2.3c1.3,1.4,0.9,3.5-0.9,4
				c-2.7,0.8-5.6,1.2-8.4,1.7c-0.4,0.1-1.1-0.3-1.3-0.7c-0.8-1.2-1.1-2-0.8-2.1c1-0.6,0.7-1.5,0.7-2.3
				C335.8,386.4,336,385.3,336.2,383.7z"/>
			<path class="st0" d="M281.4,426.1c0.1-0.2,0.4-0.4,0.9-1c0.3,1.4,1.1,1.9,2.3,2c1,0,2,0.3,3.1,0.5c-0.1,2.1-1.5,3.2-2.6,4.5
				c-1.1,1.4-2.4,2.2-4.3,1.8c-1.1-0.2-2.2,0-3.3-0.2c-2.8-0.4-3-0.9-3.8-3.6c-0.6-2-0.2-3.7,0.5-5.5c0.3-0.8,0.6-1,1.6-0.7
				c1.1,0.3,2.1,0.9,3.4,0.8C279.8,424.6,280.5,425.6,281.4,426.1z"/>
			<path class="st0" d="M475.1,380.9c0.4-0.1,0.8-0.2,1.1-0.3c0,0.1,0.1,0.4,0,0.4c-0.3,0.1-0.7,0.2-1,0.3
				C475.2,381.2,475.1,381,475.1,380.9z"/>
			<path class="st0" d="M269.3,325.2c0.5-0.4,0.9-0.8,1.4-1.2C271.1,325.5,270.2,325.3,269.3,325.2z"/>
			<path class="st0" d="M235.9,330.2c0.1,2,0.5,3.9,0.2,5.7c-0.1,1-1.2,2.1-2.1,2.6c-3,1.6-6.3,2.7-9.8,2.2
				C223.8,333.2,229,328.4,235.9,330.2z"/>
			<path class="st0" d="M144.3,331.6c1.3-3.1,1.4-7,5.1-8.9c2,1.5,1.2,3.6,1.2,5.5c0,0.3-0.4,0.7-0.7,0.9c-1.7,1-3.4,2-5.1,3
				C144.6,332,144.4,331.8,144.3,331.6z"/>
			<path class="st0" d="M105.7,323.3c0.3,2.4-0.8,4.1-2.8,5.3c-2.2,1.3-4.3,2.6-6.6,3.8c-1.8,1-3.7,0.4-5.6,0
				c-0.3-0.1-0.8-0.7-0.8-1c0.2-1.7,0.3-3.5,2-4.6c1.3-0.8,2.5-1.9,4-2.5c1.4-0.6,3-0.8,4.4-1.2c0.4-0.1,0.9-0.1,1.3-0.4
				c0.7-0.4,1.2-0.4,1.9,0.1C104.1,323.2,104.9,323.2,105.7,323.3z"/>
			<path class="st0" d="M333.1,330.3c-0.6,1-1.1,0.6-1.6-0.3C332,330.1,332.6,330.2,333.1,330.3
				C333.1,330.3,333.1,330.3,333.1,330.3z"/>
			<path class="st0" d="M447.3,292.7c1.2-0.2,2.3-0.3,3.5-0.5C449.8,294.1,448.5,292.9,447.3,292.7z"/>
		</g>
	</g>
</g>
<g id="Camada_2">
	<path class="st1" d="M207,373.7"/>
</g>
</svg>
